<svg width="1920" height="509" viewBox="0 0 1920 509" fill="none" xmlns="http://www.w3.org/2000/svg">
<g clip-path="url(#clip0_325_3413)">
<path opacity="0.208682" fill-rule="evenodd" clip-rule="evenodd" d="M1270.17 -209.318C1268.61 -209.318 1267.34 -210.661 1267.34 -212.318C1267.34 -213.975 1268.61 -215.318 1270.17 -215.318C1271.73 -215.318 1273 -213.975 1273 -212.318C1273 -210.661 1271.73 -209.318 1270.17 -209.318ZM1267.34 -185.318C1267.34 -183.661 1268.61 -182.318 1270.17 -182.318C1271.73 -182.318 1273 -183.661 1273 -185.318C1273 -186.975 1271.73 -188.318 1270.17 -188.318C1268.61 -188.318 1267.34 -186.975 1267.34 -185.318ZM1208.45 -185.318C1208.45 -183.661 1209.71 -182.318 1211.28 -182.318C1212.84 -182.318 1214.11 -183.661 1214.11 -185.318C1214.11 -186.975 1212.84 -188.318 1211.28 -188.318C1209.71 -188.318 1208.45 -186.975 1208.45 -185.318ZM1240.72 -182.318C1239.16 -182.318 1237.89 -183.661 1237.89 -185.318C1237.89 -186.975 1239.16 -188.318 1240.72 -188.318C1242.29 -188.318 1243.55 -186.975 1243.55 -185.318C1243.55 -183.661 1242.29 -182.318 1240.72 -182.318ZM1179 -185.318C1179 -183.661 1180.27 -182.318 1181.83 -182.318C1183.39 -182.318 1184.66 -183.661 1184.66 -185.318C1184.66 -186.975 1183.39 -188.318 1181.83 -188.318C1180.27 -188.318 1179 -186.975 1179 -185.318ZM1270.17 -156.318C1268.61 -156.318 1267.34 -157.661 1267.34 -159.318C1267.34 -160.975 1268.61 -162.318 1270.17 -162.318C1271.73 -162.318 1273 -160.975 1273 -159.318C1273 -157.661 1271.73 -156.318 1270.17 -156.318ZM1211.28 -156.318C1209.71 -156.318 1208.45 -157.661 1208.45 -159.318C1208.45 -160.975 1209.71 -162.318 1211.28 -162.318C1212.84 -162.318 1214.11 -160.975 1214.11 -159.318C1214.11 -157.661 1212.84 -156.318 1211.28 -156.318ZM1237.89 -159.318C1237.89 -157.661 1239.16 -156.318 1240.72 -156.318C1242.29 -156.318 1243.55 -157.661 1243.55 -159.318C1243.55 -160.975 1242.29 -162.318 1240.72 -162.318C1239.16 -162.318 1237.89 -160.975 1237.89 -159.318ZM1181.83 -156.318C1180.27 -156.318 1179 -157.661 1179 -159.318C1179 -160.975 1180.27 -162.318 1181.83 -162.318C1183.39 -162.318 1184.66 -160.975 1184.66 -159.318C1184.66 -157.661 1183.39 -156.318 1181.83 -156.318ZM1211.28 -209.318C1209.71 -209.318 1208.45 -210.661 1208.45 -212.318C1208.45 -213.975 1209.71 -215.318 1211.28 -215.318C1212.84 -215.318 1214.11 -213.975 1214.11 -212.318C1214.11 -210.661 1212.84 -209.318 1211.28 -209.318ZM1237.89 -212.318C1237.89 -210.661 1239.16 -209.318 1240.72 -209.318C1242.29 -209.318 1243.55 -210.661 1243.55 -212.318C1243.55 -213.975 1242.29 -215.318 1240.72 -215.318C1239.16 -215.318 1237.89 -213.975 1237.89 -212.318ZM1181.83 -209.318C1180.27 -209.318 1179 -210.661 1179 -212.318C1179 -213.975 1180.27 -215.318 1181.83 -215.318C1183.39 -215.318 1184.66 -213.975 1184.66 -212.318C1184.66 -210.661 1183.39 -209.318 1181.83 -209.318ZM1149.34 -132.318C1149.34 -130.661 1150.61 -129.318 1152.17 -129.318C1153.73 -129.318 1155 -130.661 1155 -132.318C1155 -133.975 1153.73 -135.318 1152.17 -135.318C1150.61 -135.318 1149.34 -133.975 1149.34 -132.318ZM1152.17 -102.318C1150.61 -102.318 1149.34 -103.661 1149.34 -105.318C1149.34 -106.975 1150.61 -108.318 1152.17 -108.318C1153.73 -108.318 1155 -106.975 1155 -105.318C1155 -103.661 1153.73 -102.318 1152.17 -102.318ZM1093.28 -102.318C1091.71 -102.318 1090.45 -103.661 1090.45 -105.318C1090.45 -106.975 1091.71 -108.318 1093.28 -108.318C1094.84 -108.318 1096.11 -106.975 1096.11 -105.318C1096.11 -103.661 1094.84 -102.318 1093.28 -102.318ZM1119.89 -105.318C1119.89 -103.661 1121.16 -102.318 1122.72 -102.318C1124.29 -102.318 1125.55 -103.661 1125.55 -105.318C1125.55 -106.975 1124.29 -108.318 1122.72 -108.318C1121.16 -108.318 1119.89 -106.975 1119.89 -105.318ZM1063.83 -102.318C1062.27 -102.318 1061 -103.661 1061 -105.318C1061 -106.975 1062.27 -108.318 1063.83 -108.318C1065.39 -108.318 1066.66 -106.975 1066.66 -105.318C1066.66 -103.661 1065.39 -102.318 1063.83 -102.318ZM1149.34 -79.3181C1149.34 -77.6612 1150.61 -76.3181 1152.17 -76.3181C1153.73 -76.3181 1155 -77.6612 1155 -79.3181C1155 -80.975 1153.73 -82.3181 1152.17 -82.3181C1150.61 -82.3181 1149.34 -80.975 1149.34 -79.3181ZM1090.45 -79.3181C1090.45 -77.6612 1091.71 -76.3181 1093.28 -76.3181C1094.84 -76.3181 1096.11 -77.6612 1096.11 -79.3181C1096.11 -80.975 1094.84 -82.3181 1093.28 -82.3181C1091.71 -82.3181 1090.45 -80.975 1090.45 -79.3181ZM1122.72 -76.3181C1121.16 -76.3181 1119.89 -77.6612 1119.89 -79.3181C1119.89 -80.975 1121.16 -82.3181 1122.72 -82.3181C1124.29 -82.3181 1125.55 -80.975 1125.55 -79.3181C1125.55 -77.6612 1124.29 -76.3181 1122.72 -76.3181ZM1061 -79.3181C1061 -77.6612 1062.27 -76.3181 1063.83 -76.3181C1065.39 -76.3181 1066.66 -77.6612 1066.66 -79.3181C1066.66 -80.975 1065.39 -82.3181 1063.83 -82.3181C1062.27 -82.3181 1061 -80.975 1061 -79.3181ZM1090.45 -132.318C1090.45 -130.661 1091.71 -129.318 1093.28 -129.318C1094.84 -129.318 1096.11 -130.661 1096.11 -132.318C1096.11 -133.975 1094.84 -135.318 1093.28 -135.318C1091.71 -135.318 1090.45 -133.975 1090.45 -132.318ZM1122.72 -129.318C1121.16 -129.318 1119.89 -130.661 1119.89 -132.318C1119.89 -133.975 1121.16 -135.318 1122.72 -135.318C1124.29 -135.318 1125.55 -133.975 1125.55 -132.318C1125.55 -130.661 1124.29 -129.318 1122.72 -129.318ZM1061 -132.318C1061 -130.661 1062.27 -129.318 1063.83 -129.318C1065.39 -129.318 1066.66 -130.661 1066.66 -132.318C1066.66 -133.975 1065.39 -135.318 1063.83 -135.318C1062.27 -135.318 1061 -133.975 1061 -132.318ZM1149.34 -212.318C1149.34 -210.661 1150.61 -209.318 1152.17 -209.318C1153.73 -209.318 1155 -210.661 1155 -212.318C1155 -213.975 1153.73 -215.318 1152.17 -215.318C1150.61 -215.318 1149.34 -213.975 1149.34 -212.318ZM1152.17 -182.318C1150.61 -182.318 1149.34 -183.661 1149.34 -185.318C1149.34 -186.975 1150.61 -188.318 1152.17 -188.318C1153.73 -188.318 1155 -186.975 1155 -185.318C1155 -183.661 1153.73 -182.318 1152.17 -182.318ZM1093.28 -182.318C1091.71 -182.318 1090.45 -183.661 1090.45 -185.318C1090.45 -186.975 1091.71 -188.318 1093.28 -188.318C1094.84 -188.318 1096.11 -186.975 1096.11 -185.318C1096.11 -183.661 1094.84 -182.318 1093.28 -182.318ZM1119.89 -185.318C1119.89 -183.661 1121.16 -182.318 1122.72 -182.318C1124.29 -182.318 1125.55 -183.661 1125.55 -185.318C1125.55 -186.975 1124.29 -188.318 1122.72 -188.318C1121.16 -188.318 1119.89 -186.975 1119.89 -185.318ZM1063.83 -182.318C1062.27 -182.318 1061 -183.661 1061 -185.318C1061 -186.975 1062.27 -188.318 1063.83 -188.318C1065.39 -188.318 1066.66 -186.975 1066.66 -185.318C1066.66 -183.661 1065.39 -182.318 1063.83 -182.318ZM1149.34 -159.318C1149.34 -157.661 1150.61 -156.318 1152.17 -156.318C1153.73 -156.318 1155 -157.661 1155 -159.318C1155 -160.975 1153.73 -162.318 1152.17 -162.318C1150.61 -162.318 1149.34 -160.975 1149.34 -159.318ZM1090.45 -159.318C1090.45 -157.661 1091.71 -156.318 1093.28 -156.318C1094.84 -156.318 1096.11 -157.661 1096.11 -159.318C1096.11 -160.975 1094.84 -162.318 1093.28 -162.318C1091.71 -162.318 1090.45 -160.975 1090.45 -159.318ZM1122.72 -156.318C1121.16 -156.318 1119.89 -157.661 1119.89 -159.318C1119.89 -160.975 1121.16 -162.318 1122.72 -162.318C1124.29 -162.318 1125.55 -160.975 1125.55 -159.318C1125.55 -157.661 1124.29 -156.318 1122.72 -156.318ZM1061 -159.318C1061 -157.661 1062.27 -156.318 1063.83 -156.318C1065.39 -156.318 1066.66 -157.661 1066.66 -159.318C1066.66 -160.975 1065.39 -162.318 1063.83 -162.318C1062.27 -162.318 1061 -160.975 1061 -159.318ZM1090.45 -212.318C1090.45 -210.661 1091.71 -209.318 1093.28 -209.318C1094.84 -209.318 1096.11 -210.661 1096.11 -212.318C1096.11 -213.975 1094.84 -215.318 1093.28 -215.318C1091.71 -215.318 1090.45 -213.975 1090.45 -212.318ZM1122.72 -209.318C1121.16 -209.318 1119.89 -210.661 1119.89 -212.318C1119.89 -213.975 1121.16 -215.318 1122.72 -215.318C1124.29 -215.318 1125.55 -213.975 1125.55 -212.318C1125.55 -210.661 1124.29 -209.318 1122.72 -209.318ZM1061 -212.318C1061 -210.661 1062.27 -209.318 1063.83 -209.318C1065.39 -209.318 1066.66 -210.661 1066.66 -212.318C1066.66 -213.975 1065.39 -215.318 1063.83 -215.318C1062.27 -215.318 1061 -213.975 1061 -212.318ZM1034.17 -129.318C1032.61 -129.318 1031.34 -130.661 1031.34 -132.318C1031.34 -133.975 1032.61 -135.318 1034.17 -135.318C1035.73 -135.318 1037 -133.975 1037 -132.318C1037 -130.661 1035.73 -129.318 1034.17 -129.318ZM1031.34 -105.318C1031.34 -103.661 1032.61 -102.318 1034.17 -102.318C1035.73 -102.318 1037 -103.661 1037 -105.318C1037 -106.975 1035.73 -108.318 1034.17 -108.318C1032.61 -108.318 1031.34 -106.975 1031.34 -105.318ZM972.446 -105.318C972.446 -103.661 973.713 -102.318 975.277 -102.318C976.841 -102.318 978.108 -103.661 978.108 -105.318C978.108 -106.975 976.841 -108.318 975.277 -108.318C973.713 -108.318 972.446 -106.975 972.446 -105.318ZM1004.72 -102.318C1003.16 -102.318 1001.89 -103.661 1001.89 -105.318C1001.89 -106.975 1003.16 -108.318 1004.72 -108.318C1006.29 -108.318 1007.55 -106.975 1007.55 -105.318C1007.55 -103.661 1006.29 -102.318 1004.72 -102.318ZM943 -105.318C943 -103.661 944.268 -102.318 945.831 -102.318C947.395 -102.318 948.663 -103.661 948.663 -105.318C948.663 -106.975 947.395 -108.318 945.831 -108.318C944.268 -108.318 943 -106.975 943 -105.318ZM1034.17 -76.3181C1032.61 -76.3181 1031.34 -77.6612 1031.34 -79.3181C1031.34 -80.975 1032.61 -82.3181 1034.17 -82.3181C1035.73 -82.3181 1037 -80.975 1037 -79.3181C1037 -77.6612 1035.73 -76.3181 1034.17 -76.3181ZM975.277 -76.3181C973.713 -76.3181 972.446 -77.6612 972.446 -79.3181C972.446 -80.975 973.713 -82.3181 975.277 -82.3181C976.841 -82.3181 978.108 -80.975 978.108 -79.3181C978.108 -77.6612 976.841 -76.3181 975.277 -76.3181ZM1001.89 -79.3181C1001.89 -77.6612 1003.16 -76.3181 1004.72 -76.3181C1006.29 -76.3181 1007.55 -77.6612 1007.55 -79.3181C1007.55 -80.975 1006.29 -82.3181 1004.72 -82.3181C1003.16 -82.3181 1001.89 -80.975 1001.89 -79.3181ZM945.831 -76.3181C944.268 -76.3181 943 -77.6612 943 -79.3181C943 -80.975 944.268 -82.3181 945.831 -82.3181C947.395 -82.3181 948.663 -80.975 948.663 -79.3181C948.663 -77.6612 947.395 -76.3181 945.831 -76.3181ZM975.277 -129.318C973.713 -129.318 972.446 -130.661 972.446 -132.318C972.446 -133.975 973.713 -135.318 975.277 -135.318C976.841 -135.318 978.108 -133.975 978.108 -132.318C978.108 -130.661 976.841 -129.318 975.277 -129.318ZM1001.89 -132.318C1001.89 -130.661 1003.16 -129.318 1004.72 -129.318C1006.29 -129.318 1007.55 -130.661 1007.55 -132.318C1007.55 -133.975 1006.29 -135.318 1004.72 -135.318C1003.16 -135.318 1001.89 -133.975 1001.89 -132.318ZM945.831 -129.318C944.268 -129.318 943 -130.661 943 -132.318C943 -133.975 944.268 -135.318 945.831 -135.318C947.395 -135.318 948.663 -133.975 948.663 -132.318C948.663 -130.661 947.395 -129.318 945.831 -129.318ZM914.34 -51.3181C914.34 -49.6612 915.6 -48.3181 917.17 -48.3181C918.73 -48.3181 920 -49.6612 920 -51.3181C920 -52.975 918.73 -54.3181 917.17 -54.3181C915.6 -54.3181 914.34 -52.975 914.34 -51.3181ZM917.17 -21.3181C915.6 -21.3181 914.34 -22.6612 914.34 -24.3181C914.34 -25.975 915.6 -27.3181 917.17 -27.3181C918.73 -27.3181 920 -25.975 920 -24.3181C920 -22.6612 918.73 -21.3181 917.17 -21.3181ZM858.28 -21.3181C856.71 -21.3181 855.45 -22.6612 855.45 -24.3181C855.45 -25.975 856.71 -27.3181 858.28 -27.3181C859.84 -27.3181 861.11 -25.975 861.11 -24.3181C861.11 -22.6612 859.84 -21.3181 858.28 -21.3181ZM884.89 -24.3181C884.89 -22.6612 886.16 -21.3181 887.72 -21.3181C889.29 -21.3181 890.55 -22.6612 890.55 -24.3181C890.55 -25.975 889.29 -27.3181 887.72 -27.3181C886.16 -27.3181 884.89 -25.975 884.89 -24.3181ZM828.83 -21.3181C827.27 -21.3181 826 -22.6612 826 -24.3181C826 -25.975 827.27 -27.3181 828.83 -27.3181C830.4 -27.3181 831.66 -25.975 831.66 -24.3181C831.66 -22.6612 830.4 -21.3181 828.83 -21.3181ZM914.34 1.68188C914.34 3.33875 915.6 4.68188 917.17 4.68188C918.73 4.68188 920 3.33875 920 1.68188C920 0.0250244 918.73 -1.31812 917.17 -1.31812C915.6 -1.31812 914.34 0.0250244 914.34 1.68188ZM855.45 1.68188C855.45 3.33875 856.71 4.68188 858.28 4.68188C859.84 4.68188 861.11 3.33875 861.11 1.68188C861.11 0.0250244 859.84 -1.31812 858.28 -1.31812C856.71 -1.31812 855.45 0.0250244 855.45 1.68188ZM887.72 4.68188C886.16 4.68188 884.89 3.33875 884.89 1.68188C884.89 0.0250244 886.16 -1.31812 887.72 -1.31812C889.29 -1.31812 890.55 0.0250244 890.55 1.68188C890.55 3.33875 889.29 4.68188 887.72 4.68188ZM826 1.68188C826 3.33875 827.27 4.68188 828.83 4.68188C830.4 4.68188 831.66 3.33875 831.66 1.68188C831.66 0.0250244 830.4 -1.31812 828.83 -1.31812C827.27 -1.31812 826 0.0250244 826 1.68188ZM855.45 -51.3181C855.45 -49.6612 856.71 -48.3181 858.28 -48.3181C859.84 -48.3181 861.11 -49.6612 861.11 -51.3181C861.11 -52.975 859.84 -54.3181 858.28 -54.3181C856.71 -54.3181 855.45 -52.975 855.45 -51.3181ZM887.72 -48.3181C886.16 -48.3181 884.89 -49.6612 884.89 -51.3181C884.89 -52.975 886.16 -54.3181 887.72 -54.3181C889.29 -54.3181 890.55 -52.975 890.55 -51.3181C890.55 -49.6612 889.29 -48.3181 887.72 -48.3181ZM826 -51.3181C826 -49.6612 827.27 -48.3181 828.83 -48.3181C830.4 -48.3181 831.66 -49.6612 831.66 -51.3181C831.66 -52.975 830.4 -54.3181 828.83 -54.3181C827.27 -54.3181 826 -52.975 826 -51.3181ZM799.17 31.6819C797.6 31.6819 796.34 30.3388 796.34 28.6819C796.34 27.025 797.6 25.6819 799.17 25.6819C800.73 25.6819 802 27.025 802 28.6819C802 30.3388 800.73 31.6819 799.17 31.6819ZM796.34 55.6819C796.34 57.3388 797.6 58.6819 799.17 58.6819C800.73 58.6819 802 57.3388 802 55.6819C802 54.025 800.73 52.6819 799.17 52.6819C797.6 52.6819 796.34 54.025 796.34 55.6819ZM737.45 55.6819C737.45 57.3388 738.71 58.6819 740.28 58.6819C741.84 58.6819 743.11 57.3388 743.11 55.6819C743.11 54.025 741.84 52.6819 740.28 52.6819C738.71 52.6819 737.45 54.025 737.45 55.6819ZM769.72 58.6819C768.16 58.6819 766.89 57.3388 766.89 55.6819C766.89 54.025 768.16 52.6819 769.72 52.6819C771.29 52.6819 772.55 54.025 772.55 55.6819C772.55 57.3388 771.29 58.6819 769.72 58.6819ZM708 55.6819C708 57.3388 709.27 58.6819 710.83 58.6819C712.4 58.6819 713.66 57.3388 713.66 55.6819C713.66 54.025 712.4 52.6819 710.83 52.6819C709.27 52.6819 708 54.025 708 55.6819ZM799.17 84.6819C797.6 84.6819 796.34 83.3388 796.34 81.6819C796.34 80.025 797.6 78.6819 799.17 78.6819C800.73 78.6819 802 80.025 802 81.6819C802 83.3388 800.73 84.6819 799.17 84.6819ZM740.28 84.6819C738.71 84.6819 737.45 83.3388 737.45 81.6819C737.45 80.025 738.71 78.6819 740.28 78.6819C741.84 78.6819 743.11 80.025 743.11 81.6819C743.11 83.3388 741.84 84.6819 740.28 84.6819ZM766.89 81.6819C766.89 83.3388 768.16 84.6819 769.72 84.6819C771.29 84.6819 772.55 83.3388 772.55 81.6819C772.55 80.025 771.29 78.6819 769.72 78.6819C768.16 78.6819 766.89 80.025 766.89 81.6819ZM710.83 84.6819C709.27 84.6819 708 83.3388 708 81.6819C708 80.025 709.27 78.6819 710.83 78.6819C712.4 78.6819 713.66 80.025 713.66 81.6819C713.66 83.3388 712.4 84.6819 710.83 84.6819ZM740.28 31.6819C738.71 31.6819 737.45 30.3388 737.45 28.6819C737.45 27.025 738.71 25.6819 740.28 25.6819C741.84 25.6819 743.11 27.025 743.11 28.6819C743.11 30.3388 741.84 31.6819 740.28 31.6819ZM766.89 28.6819C766.89 30.3388 768.16 31.6819 769.72 31.6819C771.29 31.6819 772.55 30.3388 772.55 28.6819C772.55 27.025 771.29 25.6819 769.72 25.6819C768.16 25.6819 766.89 27.025 766.89 28.6819ZM710.83 31.6819C709.27 31.6819 708 30.3388 708 28.6819C708 27.025 709.27 25.6819 710.83 25.6819C712.4 25.6819 713.66 27.025 713.66 28.6819C713.66 30.3388 712.4 31.6819 710.83 31.6819ZM799.17 -48.3181C797.6 -48.3181 796.34 -49.6612 796.34 -51.3181C796.34 -52.975 797.6 -54.3181 799.17 -54.3181C800.73 -54.3181 802 -52.975 802 -51.3181C802 -49.6612 800.73 -48.3181 799.17 -48.3181ZM796.34 -24.3181C796.34 -22.6612 797.6 -21.3181 799.17 -21.3181C800.73 -21.3181 802 -22.6612 802 -24.3181C802 -25.975 800.73 -27.3181 799.17 -27.3181C797.6 -27.3181 796.34 -25.975 796.34 -24.3181ZM737.45 -24.3181C737.45 -22.6612 738.71 -21.3181 740.28 -21.3181C741.84 -21.3181 743.11 -22.6612 743.11 -24.3181C743.11 -25.975 741.84 -27.3181 740.28 -27.3181C738.71 -27.3181 737.45 -25.975 737.45 -24.3181ZM769.72 -21.3181C768.16 -21.3181 766.89 -22.6612 766.89 -24.3181C766.89 -25.975 768.16 -27.3181 769.72 -27.3181C771.29 -27.3181 772.55 -25.975 772.55 -24.3181C772.55 -22.6612 771.29 -21.3181 769.72 -21.3181ZM708 -24.3181C708 -22.6612 709.27 -21.3181 710.83 -21.3181C712.4 -21.3181 713.66 -22.6612 713.66 -24.3181C713.66 -25.975 712.4 -27.3181 710.83 -27.3181C709.27 -27.3181 708 -25.975 708 -24.3181ZM799.17 4.68188C797.6 4.68188 796.34 3.33875 796.34 1.68188C796.34 0.0250244 797.6 -1.31812 799.17 -1.31812C800.73 -1.31812 802 0.0250244 802 1.68188C802 3.33875 800.73 4.68188 799.17 4.68188ZM740.28 4.68188C738.71 4.68188 737.45 3.33875 737.45 1.68188C737.45 0.0250244 738.71 -1.31812 740.28 -1.31812C741.84 -1.31812 743.11 0.0250244 743.11 1.68188C743.11 3.33875 741.84 4.68188 740.28 4.68188ZM766.89 1.68188C766.89 3.33875 768.16 4.68188 769.72 4.68188C771.29 4.68188 772.55 3.33875 772.55 1.68188C772.55 0.0250244 771.29 -1.31812 769.72 -1.31812C768.16 -1.31812 766.89 0.0250244 766.89 1.68188ZM710.83 4.68188C709.27 4.68188 708 3.33875 708 1.68188C708 0.0250244 709.27 -1.31812 710.83 -1.31812C712.4 -1.31812 713.66 0.0250244 713.66 1.68188C713.66 3.33875 712.4 4.68188 710.83 4.68188ZM740.28 -48.3181C738.71 -48.3181 737.45 -49.6612 737.45 -51.3181C737.45 -52.975 738.71 -54.3181 740.28 -54.3181C741.84 -54.3181 743.11 -52.975 743.11 -51.3181C743.11 -49.6612 741.84 -48.3181 740.28 -48.3181ZM766.89 -51.3181C766.89 -49.6612 768.16 -48.3181 769.72 -48.3181C771.29 -48.3181 772.55 -49.6612 772.55 -51.3181C772.55 -52.975 771.29 -54.3181 769.72 -54.3181C768.16 -54.3181 766.89 -52.975 766.89 -51.3181ZM710.83 -48.3181C709.27 -48.3181 708 -49.6612 708 -51.3181C708 -52.975 709.27 -54.3181 710.83 -54.3181C712.4 -54.3181 713.66 -52.975 713.66 -51.3181C713.66 -49.6612 712.4 -48.3181 710.83 -48.3181ZM678.34 28.6819C678.34 30.3388 679.6 31.6819 681.17 31.6819C682.73 31.6819 684 30.3388 684 28.6819C684 27.025 682.73 25.6819 681.17 25.6819C679.6 25.6819 678.34 27.025 678.34 28.6819ZM681.17 58.6819C679.6 58.6819 678.34 57.3388 678.34 55.6819C678.34 54.025 679.6 52.6819 681.17 52.6819C682.73 52.6819 684 54.025 684 55.6819C684 57.3388 682.73 58.6819 681.17 58.6819ZM622.28 58.6819C620.71 58.6819 619.45 57.3388 619.45 55.6819C619.45 54.025 620.71 52.6819 622.28 52.6819C623.84 52.6819 625.11 54.025 625.11 55.6819C625.11 57.3388 623.84 58.6819 622.28 58.6819ZM648.89 55.6819C648.89 57.3388 650.16 58.6819 651.72 58.6819C653.29 58.6819 654.55 57.3388 654.55 55.6819C654.55 54.025 653.29 52.6819 651.72 52.6819C650.16 52.6819 648.89 54.025 648.89 55.6819ZM592.83 58.6819C591.27 58.6819 590 57.3388 590 55.6819C590 54.025 591.27 52.6819 592.83 52.6819C594.4 52.6819 595.66 54.025 595.66 55.6819C595.66 57.3388 594.4 58.6819 592.83 58.6819ZM678.34 81.6819C678.34 83.3388 679.6 84.6819 681.17 84.6819C682.73 84.6819 684 83.3388 684 81.6819C684 80.025 682.73 78.6819 681.17 78.6819C679.6 78.6819 678.34 80.025 678.34 81.6819ZM619.45 81.6819C619.45 83.3388 620.71 84.6819 622.28 84.6819C623.84 84.6819 625.11 83.3388 625.11 81.6819C625.11 80.025 623.84 78.6819 622.28 78.6819C620.71 78.6819 619.45 80.025 619.45 81.6819ZM651.72 84.6819C650.16 84.6819 648.89 83.3388 648.89 81.6819C648.89 80.025 650.16 78.6819 651.72 78.6819C653.29 78.6819 654.55 80.025 654.55 81.6819C654.55 83.3388 653.29 84.6819 651.72 84.6819ZM590 81.6819C590 83.3388 591.27 84.6819 592.83 84.6819C594.4 84.6819 595.66 83.3388 595.66 81.6819C595.66 80.025 594.4 78.6819 592.83 78.6819C591.27 78.6819 590 80.025 590 81.6819ZM619.45 28.6819C619.45 30.3388 620.71 31.6819 622.28 31.6819C623.84 31.6819 625.11 30.3388 625.11 28.6819C625.11 27.025 623.84 25.6819 622.28 25.6819C620.71 25.6819 619.45 27.025 619.45 28.6819ZM651.72 31.6819C650.16 31.6819 648.89 30.3388 648.89 28.6819C648.89 27.025 650.16 25.6819 651.72 25.6819C653.29 25.6819 654.55 27.025 654.55 28.6819C654.55 30.3388 653.29 31.6819 651.72 31.6819ZM590 28.6819C590 30.3388 591.27 31.6819 592.83 31.6819C594.4 31.6819 595.66 30.3388 595.66 28.6819C595.66 27.025 594.4 25.6819 592.83 25.6819C591.27 25.6819 590 27.025 590 28.6819ZM677.34 -51.3181C677.34 -49.6612 678.6 -48.3181 680.17 -48.3181C681.73 -48.3181 683 -49.6612 683 -51.3181C683 -52.975 681.73 -54.3181 680.17 -54.3181C678.6 -54.3181 677.34 -52.975 677.34 -51.3181ZM680.17 -21.3181C678.6 -21.3181 677.34 -22.6612 677.34 -24.3181C677.34 -25.975 678.6 -27.3181 680.17 -27.3181C681.73 -27.3181 683 -25.975 683 -24.3181C683 -22.6612 681.73 -21.3181 680.17 -21.3181ZM621.28 -21.3181C619.71 -21.3181 618.45 -22.6612 618.45 -24.3181C618.45 -25.975 619.71 -27.3181 621.28 -27.3181C622.84 -27.3181 624.11 -25.975 624.11 -24.3181C624.11 -22.6612 622.84 -21.3181 621.28 -21.3181ZM647.89 -24.3181C647.89 -22.6612 649.16 -21.3181 650.72 -21.3181C652.29 -21.3181 653.55 -22.6612 653.55 -24.3181C653.55 -25.975 652.29 -27.3181 650.72 -27.3181C649.16 -27.3181 647.89 -25.975 647.89 -24.3181ZM591.83 -21.3181C590.27 -21.3181 589 -22.6612 589 -24.3181C589 -25.975 590.27 -27.3181 591.83 -27.3181C593.4 -27.3181 594.66 -25.975 594.66 -24.3181C594.66 -22.6612 593.4 -21.3181 591.83 -21.3181ZM677.34 1.68188C677.34 3.33875 678.6 4.68188 680.17 4.68188C681.73 4.68188 683 3.33875 683 1.68188C683 0.0250244 681.73 -1.31812 680.17 -1.31812C678.6 -1.31812 677.34 0.0250244 677.34 1.68188ZM618.45 1.68188C618.45 3.33875 619.71 4.68188 621.28 4.68188C622.84 4.68188 624.11 3.33875 624.11 1.68188C624.11 0.0250244 622.84 -1.31812 621.28 -1.31812C619.71 -1.31812 618.45 0.0250244 618.45 1.68188ZM650.72 4.68188C649.16 4.68188 647.89 3.33875 647.89 1.68188C647.89 0.0250244 649.16 -1.31812 650.72 -1.31812C652.29 -1.31812 653.55 0.0250244 653.55 1.68188C653.55 3.33875 652.29 4.68188 650.72 4.68188ZM589 1.68188C589 3.33875 590.27 4.68188 591.83 4.68188C593.4 4.68188 594.66 3.33875 594.66 1.68188C594.66 0.0250244 593.4 -1.31812 591.83 -1.31812C590.27 -1.31812 589 0.0250244 589 1.68188ZM618.45 -51.3181C618.45 -49.6612 619.71 -48.3181 621.28 -48.3181C622.84 -48.3181 624.11 -49.6612 624.11 -51.3181C624.11 -52.975 622.84 -54.3181 621.28 -54.3181C619.71 -54.3181 618.45 -52.975 618.45 -51.3181ZM650.72 -48.3181C649.16 -48.3181 647.89 -49.6612 647.89 -51.3181C647.89 -52.975 649.16 -54.3181 650.72 -54.3181C652.29 -54.3181 653.55 -52.975 653.55 -51.3181C653.55 -49.6612 652.29 -48.3181 650.72 -48.3181ZM589 -51.3181C589 -49.6612 590.27 -48.3181 591.83 -48.3181C593.4 -48.3181 594.66 -49.6612 594.66 -51.3181C594.66 -52.975 593.4 -54.3181 591.83 -54.3181C590.27 -54.3181 589 -52.975 589 -51.3181ZM562.17 31.6819C560.6 31.6819 559.34 30.3388 559.34 28.6819C559.34 27.025 560.6 25.6819 562.17 25.6819C563.73 25.6819 565 27.025 565 28.6819C565 30.3388 563.73 31.6819 562.17 31.6819ZM559.34 55.6819C559.34 57.3388 560.6 58.6819 562.17 58.6819C563.73 58.6819 565 57.3388 565 55.6819C565 54.025 563.73 52.6819 562.17 52.6819C560.6 52.6819 559.34 54.025 559.34 55.6819ZM500.45 55.6819C500.45 57.3388 501.71 58.6819 503.28 58.6819C504.84 58.6819 506.11 57.3388 506.11 55.6819C506.11 54.025 504.84 52.6819 503.28 52.6819C501.71 52.6819 500.45 54.025 500.45 55.6819ZM532.72 58.6819C531.16 58.6819 529.89 57.3388 529.89 55.6819C529.89 54.025 531.16 52.6819 532.72 52.6819C534.29 52.6819 535.55 54.025 535.55 55.6819C535.55 57.3388 534.29 58.6819 532.72 58.6819ZM471 55.6819C471 57.3388 472.27 58.6819 473.83 58.6819C475.4 58.6819 476.66 57.3388 476.66 55.6819C476.66 54.025 475.4 52.6819 473.83 52.6819C472.27 52.6819 471 54.025 471 55.6819ZM562.17 84.6819C560.6 84.6819 559.34 83.3388 559.34 81.6819C559.34 80.025 560.6 78.6819 562.17 78.6819C563.73 78.6819 565 80.025 565 81.6819C565 83.3388 563.73 84.6819 562.17 84.6819ZM503.28 84.6819C501.71 84.6819 500.45 83.3388 500.45 81.6819C500.45 80.025 501.71 78.6819 503.28 78.6819C504.84 78.6819 506.11 80.025 506.11 81.6819C506.11 83.3388 504.84 84.6819 503.28 84.6819ZM529.89 81.6819C529.89 83.3388 531.16 84.6819 532.72 84.6819C534.29 84.6819 535.55 83.3388 535.55 81.6819C535.55 80.025 534.29 78.6819 532.72 78.6819C531.16 78.6819 529.89 80.025 529.89 81.6819ZM473.83 84.6819C472.27 84.6819 471 83.3388 471 81.6819C471 80.025 472.27 78.6819 473.83 78.6819C475.4 78.6819 476.66 80.025 476.66 81.6819C476.66 83.3388 475.4 84.6819 473.83 84.6819ZM503.28 31.6819C501.71 31.6819 500.45 30.3388 500.45 28.6819C500.45 27.025 501.71 25.6819 503.28 25.6819C504.84 25.6819 506.11 27.025 506.11 28.6819C506.11 30.3388 504.84 31.6819 503.28 31.6819ZM529.89 28.6819C529.89 30.3388 531.16 31.6819 532.72 31.6819C534.29 31.6819 535.55 30.3388 535.55 28.6819C535.55 27.025 534.29 25.6819 532.72 25.6819C531.16 25.6819 529.89 27.025 529.89 28.6819ZM473.83 31.6819C472.27 31.6819 471 30.3388 471 28.6819C471 27.025 472.27 25.6819 473.83 25.6819C475.4 25.6819 476.66 27.025 476.66 28.6819C476.66 30.3388 475.4 31.6819 473.83 31.6819ZM562.17 -48.3181C560.6 -48.3181 559.34 -49.6612 559.34 -51.3181C559.34 -52.975 560.6 -54.3181 562.17 -54.3181C563.73 -54.3181 565 -52.975 565 -51.3181C565 -49.6612 563.73 -48.3181 562.17 -48.3181ZM559.34 -24.3181C559.34 -22.6612 560.6 -21.3181 562.17 -21.3181C563.73 -21.3181 565 -22.6612 565 -24.3181C565 -25.975 563.73 -27.3181 562.17 -27.3181C560.6 -27.3181 559.34 -25.975 559.34 -24.3181ZM500.45 -24.3181C500.45 -22.6612 501.71 -21.3181 503.28 -21.3181C504.84 -21.3181 506.11 -22.6612 506.11 -24.3181C506.11 -25.975 504.84 -27.3181 503.28 -27.3181C501.71 -27.3181 500.45 -25.975 500.45 -24.3181ZM532.72 -21.3181C531.16 -21.3181 529.89 -22.6612 529.89 -24.3181C529.89 -25.975 531.16 -27.3181 532.72 -27.3181C534.29 -27.3181 535.55 -25.975 535.55 -24.3181C535.55 -22.6612 534.29 -21.3181 532.72 -21.3181ZM471 -24.3181C471 -22.6612 472.27 -21.3181 473.83 -21.3181C475.4 -21.3181 476.66 -22.6612 476.66 -24.3181C476.66 -25.975 475.4 -27.3181 473.83 -27.3181C472.27 -27.3181 471 -25.975 471 -24.3181ZM562.17 4.68188C560.6 4.68188 559.34 3.33875 559.34 1.68188C559.34 0.0250244 560.6 -1.31812 562.17 -1.31812C563.73 -1.31812 565 0.0250244 565 1.68188C565 3.33875 563.73 4.68188 562.17 4.68188ZM503.28 4.68188C501.71 4.68188 500.45 3.33875 500.45 1.68188C500.45 0.0250244 501.71 -1.31812 503.28 -1.31812C504.84 -1.31812 506.11 0.0250244 506.11 1.68188C506.11 3.33875 504.84 4.68188 503.28 4.68188ZM529.89 1.68188C529.89 3.33875 531.16 4.68188 532.72 4.68188C534.29 4.68188 535.55 3.33875 535.55 1.68188C535.55 0.0250244 534.29 -1.31812 532.72 -1.31812C531.16 -1.31812 529.89 0.0250244 529.89 1.68188ZM473.83 4.68188C472.27 4.68188 471 3.33875 471 1.68188C471 0.0250244 472.27 -1.31812 473.83 -1.31812C475.4 -1.31812 476.66 0.0250244 476.66 1.68188C476.66 3.33875 475.4 4.68188 473.83 4.68188ZM503.28 -48.3181C501.71 -48.3181 500.45 -49.6612 500.45 -51.3181C500.45 -52.975 501.71 -54.3181 503.28 -54.3181C504.84 -54.3181 506.11 -52.975 506.11 -51.3181C506.11 -49.6612 504.84 -48.3181 503.28 -48.3181ZM529.89 -51.3181C529.89 -49.6612 531.16 -48.3181 532.72 -48.3181C534.29 -48.3181 535.55 -49.6612 535.55 -51.3181C535.55 -52.975 534.29 -54.3181 532.72 -54.3181C531.16 -54.3181 529.89 -52.975 529.89 -51.3181ZM473.83 -48.3181C472.27 -48.3181 471 -49.6612 471 -51.3181C471 -52.975 472.27 -54.3181 473.83 -54.3181C475.4 -54.3181 476.66 -52.975 476.66 -51.3181C476.66 -49.6612 475.4 -48.3181 473.83 -48.3181ZM441.34 28.6819C441.34 30.3388 442.6 31.6819 444.17 31.6819C445.73 31.6819 447 30.3388 447 28.6819C447 27.025 445.73 25.6819 444.17 25.6819C442.6 25.6819 441.34 27.025 441.34 28.6819ZM444.17 58.6819C442.6 58.6819 441.34 57.3388 441.34 55.6819C441.34 54.025 442.6 52.6819 444.17 52.6819C445.73 52.6819 447 54.025 447 55.6819C447 57.3388 445.73 58.6819 444.17 58.6819ZM385.28 58.6819C383.71 58.6819 382.45 57.3388 382.45 55.6819C382.45 54.025 383.71 52.6819 385.28 52.6819C386.84 52.6819 388.11 54.025 388.11 55.6819C388.11 57.3388 386.84 58.6819 385.28 58.6819ZM411.89 55.6819C411.89 57.3388 413.16 58.6819 414.72 58.6819C416.29 58.6819 417.55 57.3388 417.55 55.6819C417.55 54.025 416.29 52.6819 414.72 52.6819C413.16 52.6819 411.89 54.025 411.89 55.6819ZM355.83 58.6819C354.27 58.6819 353 57.3388 353 55.6819C353 54.025 354.27 52.6819 355.83 52.6819C357.4 52.6819 358.66 54.025 358.66 55.6819C358.66 57.3388 357.4 58.6819 355.83 58.6819ZM441.34 81.6819C441.34 83.3388 442.6 84.6819 444.17 84.6819C445.73 84.6819 447 83.3388 447 81.6819C447 80.025 445.73 78.6819 444.17 78.6819C442.6 78.6819 441.34 80.025 441.34 81.6819ZM382.45 81.6819C382.45 83.3388 383.71 84.6819 385.28 84.6819C386.84 84.6819 388.11 83.3388 388.11 81.6819C388.11 80.025 386.84 78.6819 385.28 78.6819C383.71 78.6819 382.45 80.025 382.45 81.6819ZM414.72 84.6819C413.16 84.6819 411.89 83.3388 411.89 81.6819C411.89 80.025 413.16 78.6819 414.72 78.6819C416.29 78.6819 417.55 80.025 417.55 81.6819C417.55 83.3388 416.29 84.6819 414.72 84.6819ZM353 81.6819C353 83.3388 354.27 84.6819 355.83 84.6819C357.4 84.6819 358.66 83.3388 358.66 81.6819C358.66 80.025 357.4 78.6819 355.83 78.6819C354.27 78.6819 353 80.025 353 81.6819ZM382.45 28.6819C382.45 30.3388 383.71 31.6819 385.28 31.6819C386.84 31.6819 388.11 30.3388 388.11 28.6819C388.11 27.025 386.84 25.6819 385.28 25.6819C383.71 25.6819 382.45 27.025 382.45 28.6819ZM414.72 31.6819C413.16 31.6819 411.89 30.3388 411.89 28.6819C411.89 27.025 413.16 25.6819 414.72 25.6819C416.29 25.6819 417.55 27.025 417.55 28.6819C417.55 30.3388 416.29 31.6819 414.72 31.6819ZM353 28.6819C353 30.3388 354.27 31.6819 355.83 31.6819C357.4 31.6819 358.66 30.3388 358.66 28.6819C358.66 27.025 357.4 25.6819 355.83 25.6819C354.27 25.6819 353 27.025 353 28.6819ZM327.17 112.682C325.6 112.682 324.34 111.339 324.34 109.682C324.34 108.025 325.6 106.682 327.17 106.682C328.73 106.682 330 108.025 330 109.682C330 111.339 328.73 112.682 327.17 112.682ZM324.34 136.682C324.34 138.339 325.6 139.682 327.17 139.682C328.73 139.682 330 138.339 330 136.682C330 135.025 328.73 133.682 327.17 133.682C325.6 133.682 324.34 135.025 324.34 136.682ZM265.45 136.682C265.45 138.339 266.71 139.682 268.28 139.682C269.84 139.682 271.11 138.339 271.11 136.682C271.11 135.025 269.84 133.682 268.28 133.682C266.71 133.682 265.45 135.025 265.45 136.682ZM297.72 139.682C296.16 139.682 294.89 138.339 294.89 136.682C294.89 135.025 296.16 133.682 297.72 133.682C299.29 133.682 300.55 135.025 300.55 136.682C300.55 138.339 299.29 139.682 297.72 139.682ZM236 136.682C236 138.339 237.27 139.682 238.83 139.682C240.4 139.682 241.66 138.339 241.66 136.682C241.66 135.025 240.4 133.682 238.83 133.682C237.27 133.682 236 135.025 236 136.682ZM327.17 165.682C325.6 165.682 324.34 164.339 324.34 162.682C324.34 161.025 325.6 159.682 327.17 159.682C328.73 159.682 330 161.025 330 162.682C330 164.339 328.73 165.682 327.17 165.682ZM268.28 165.682C266.71 165.682 265.45 164.339 265.45 162.682C265.45 161.025 266.71 159.682 268.28 159.682C269.84 159.682 271.11 161.025 271.11 162.682C271.11 164.339 269.84 165.682 268.28 165.682ZM294.89 162.682C294.89 164.339 296.16 165.682 297.72 165.682C299.29 165.682 300.55 164.339 300.55 162.682C300.55 161.025 299.29 159.682 297.72 159.682C296.16 159.682 294.89 161.025 294.89 162.682ZM238.83 165.682C237.27 165.682 236 164.339 236 162.682C236 161.025 237.27 159.682 238.83 159.682C240.4 159.682 241.66 161.025 241.66 162.682C241.66 164.339 240.4 165.682 238.83 165.682ZM268.28 112.682C266.71 112.682 265.45 111.339 265.45 109.682C265.45 108.025 266.71 106.682 268.28 106.682C269.84 106.682 271.11 108.025 271.11 109.682C271.11 111.339 269.84 112.682 268.28 112.682ZM294.89 109.682C294.89 111.339 296.16 112.682 297.72 112.682C299.29 112.682 300.55 111.339 300.55 109.682C300.55 108.025 299.29 106.682 297.72 106.682C296.16 106.682 294.89 108.025 294.89 109.682ZM238.83 112.682C237.27 112.682 236 111.339 236 109.682C236 108.025 237.27 106.682 238.83 106.682C240.4 106.682 241.66 108.025 241.66 109.682C241.66 111.339 240.4 112.682 238.83 112.682ZM206.34 189.682C206.34 191.339 207.6 192.682 209.17 192.682C210.73 192.682 212 191.339 212 189.682C212 188.025 210.73 186.682 209.17 186.682C207.6 186.682 206.34 188.025 206.34 189.682ZM209.17 219.682C207.6 219.682 206.34 218.339 206.34 216.682C206.34 215.025 207.6 213.682 209.17 213.682C210.73 213.682 212 215.025 212 216.682C212 218.339 210.73 219.682 209.17 219.682ZM150.28 219.682C148.71 219.682 147.45 218.339 147.45 216.682C147.45 215.025 148.71 213.682 150.28 213.682C151.84 213.682 153.11 215.025 153.11 216.682C153.11 218.339 151.84 219.682 150.28 219.682ZM176.89 216.682C176.89 218.339 178.16 219.682 179.72 219.682C181.29 219.682 182.55 218.339 182.55 216.682C182.55 215.025 181.29 213.682 179.72 213.682C178.16 213.682 176.89 215.025 176.89 216.682ZM120.83 219.682C119.27 219.682 118 218.339 118 216.682C118 215.025 119.27 213.682 120.83 213.682C122.4 213.682 123.66 215.025 123.66 216.682C123.66 218.339 122.4 219.682 120.83 219.682ZM206.34 242.682C206.34 244.339 207.6 245.682 209.17 245.682C210.73 245.682 212 244.339 212 242.682C212 241.025 210.73 239.682 209.17 239.682C207.6 239.682 206.34 241.025 206.34 242.682ZM147.45 242.682C147.45 244.339 148.71 245.682 150.28 245.682C151.84 245.682 153.11 244.339 153.11 242.682C153.11 241.025 151.84 239.682 150.28 239.682C148.71 239.682 147.45 241.025 147.45 242.682ZM179.72 245.682C178.16 245.682 176.89 244.339 176.89 242.682C176.89 241.025 178.16 239.682 179.72 239.682C181.29 239.682 182.55 241.025 182.55 242.682C182.55 244.339 181.29 245.682 179.72 245.682ZM118 242.682C118 244.339 119.27 245.682 120.83 245.682C122.4 245.682 123.66 244.339 123.66 242.682C123.66 241.025 122.4 239.682 120.83 239.682C119.27 239.682 118 241.025 118 242.682ZM147.45 189.682C147.45 191.339 148.71 192.682 150.28 192.682C151.84 192.682 153.11 191.339 153.11 189.682C153.11 188.025 151.84 186.682 150.28 186.682C148.71 186.682 147.45 188.025 147.45 189.682ZM179.72 192.682C178.16 192.682 176.89 191.339 176.89 189.682C176.89 188.025 178.16 186.682 179.72 186.682C181.29 186.682 182.55 188.025 182.55 189.682C182.55 191.339 181.29 192.682 179.72 192.682ZM118 189.682C118 191.339 119.27 192.682 120.83 192.682C122.4 192.682 123.66 191.339 123.66 189.682C123.66 188.025 122.4 186.682 120.83 186.682C119.27 186.682 118 188.025 118 189.682ZM206.34 109.682C206.34 111.339 207.6 112.682 209.17 112.682C210.73 112.682 212 111.339 212 109.682C212 108.025 210.73 106.682 209.17 106.682C207.6 106.682 206.34 108.025 206.34 109.682ZM209.17 139.682C207.6 139.682 206.34 138.339 206.34 136.682C206.34 135.025 207.6 133.682 209.17 133.682C210.73 133.682 212 135.025 212 136.682C212 138.339 210.73 139.682 209.17 139.682ZM150.28 139.682C148.71 139.682 147.45 138.339 147.45 136.682C147.45 135.025 148.71 133.682 150.28 133.682C151.84 133.682 153.11 135.025 153.11 136.682C153.11 138.339 151.84 139.682 150.28 139.682ZM176.89 136.682C176.89 138.339 178.16 139.682 179.72 139.682C181.29 139.682 182.55 138.339 182.55 136.682C182.55 135.025 181.29 133.682 179.72 133.682C178.16 133.682 176.89 135.025 176.89 136.682ZM120.83 139.682C119.27 139.682 118 138.339 118 136.682C118 135.025 119.27 133.682 120.83 133.682C122.4 133.682 123.66 135.025 123.66 136.682C123.66 138.339 122.4 139.682 120.83 139.682ZM206.34 162.682C206.34 164.339 207.6 165.682 209.17 165.682C210.73 165.682 212 164.339 212 162.682C212 161.025 210.73 159.682 209.17 159.682C207.6 159.682 206.34 161.025 206.34 162.682ZM147.45 162.682C147.45 164.339 148.71 165.682 150.28 165.682C151.84 165.682 153.11 164.339 153.11 162.682C153.11 161.025 151.84 159.682 150.28 159.682C148.71 159.682 147.45 161.025 147.45 162.682ZM179.72 165.682C178.16 165.682 176.89 164.339 176.89 162.682C176.89 161.025 178.16 159.682 179.72 159.682C181.29 159.682 182.55 161.025 182.55 162.682C182.55 164.339 181.29 165.682 179.72 165.682ZM118 162.682C118 164.339 119.27 165.682 120.83 165.682C122.4 165.682 123.66 164.339 123.66 162.682C123.66 161.025 122.4 159.682 120.83 159.682C119.27 159.682 118 161.025 118 162.682ZM147.45 109.682C147.45 111.339 148.71 112.682 150.28 112.682C151.84 112.682 153.11 111.339 153.11 109.682C153.11 108.025 151.84 106.682 150.28 106.682C148.71 106.682 147.45 108.025 147.45 109.682ZM179.72 112.682C178.16 112.682 176.89 111.339 176.89 109.682C176.89 108.025 178.16 106.682 179.72 106.682C181.29 106.682 182.55 108.025 182.55 109.682C182.55 111.339 181.29 112.682 179.72 112.682ZM118 109.682C118 111.339 119.27 112.682 120.83 112.682C122.4 112.682 123.66 111.339 123.66 109.682C123.66 108.025 122.4 106.682 120.83 106.682C119.27 106.682 118 108.025 118 109.682ZM91.17 192.682C89.6001 192.682 88.34 191.339 88.34 189.682C88.34 188.025 89.6001 186.682 91.17 186.682C92.7301 186.682 94 188.025 94 189.682C94 191.339 92.7301 192.682 91.17 192.682ZM88.34 216.682C88.34 218.339 89.6001 219.682 91.17 219.682C92.7301 219.682 94 218.339 94 216.682C94 215.025 92.7301 213.682 91.17 213.682C89.6001 213.682 88.34 215.025 88.34 216.682ZM29.45 216.682C29.45 218.339 30.7101 219.682 32.28 219.682C33.8401 219.682 35.11 218.339 35.11 216.682C35.11 215.025 33.8401 213.682 32.28 213.682C30.7101 213.682 29.45 215.025 29.45 216.682ZM61.72 219.682C60.1599 219.682 58.89 218.339 58.89 216.682C58.89 215.025 60.1599 213.682 61.72 213.682C63.2899 213.682 64.55 215.025 64.55 216.682C64.55 218.339 63.2899 219.682 61.72 219.682ZM0 216.682C0 218.339 1.2699 219.682 2.82996 219.682C4.3999 219.682 5.66003 218.339 5.66003 216.682C5.66003 215.025 4.3999 213.682 2.82996 213.682C1.2699 213.682 0 215.025 0 216.682ZM91.17 245.682C89.6001 245.682 88.34 244.339 88.34 242.682C88.34 241.025 89.6001 239.682 91.17 239.682C92.7301 239.682 94 241.025 94 242.682C94 244.339 92.7301 245.682 91.17 245.682ZM32.28 245.682C30.7101 245.682 29.45 244.339 29.45 242.682C29.45 241.025 30.7101 239.682 32.28 239.682C33.8401 239.682 35.11 241.025 35.11 242.682C35.11 244.339 33.8401 245.682 32.28 245.682ZM58.89 242.682C58.89 244.339 60.1599 245.682 61.72 245.682C63.2899 245.682 64.55 244.339 64.55 242.682C64.55 241.025 63.2899 239.682 61.72 239.682C60.1599 239.682 58.89 241.025 58.89 242.682ZM2.82996 245.682C1.2699 245.682 0 244.339 0 242.682C0 241.025 1.2699 239.682 2.82996 239.682C4.3999 239.682 5.66003 241.025 5.66003 242.682C5.66003 244.339 4.3999 245.682 2.82996 245.682ZM32.28 192.682C30.7101 192.682 29.45 191.339 29.45 189.682C29.45 188.025 30.7101 186.682 32.28 186.682C33.8401 186.682 35.11 188.025 35.11 189.682C35.11 191.339 33.8401 192.682 32.28 192.682ZM58.89 189.682C58.89 191.339 60.1599 192.682 61.72 192.682C63.2899 192.682 64.55 191.339 64.55 189.682C64.55 188.025 63.2899 186.682 61.72 186.682C60.1599 186.682 58.89 188.025 58.89 189.682ZM2.82996 192.682C1.2699 192.682 0 191.339 0 189.682C0 188.025 1.2699 186.682 2.82996 186.682C4.3999 186.682 5.66003 188.025 5.66003 189.682C5.66003 191.339 4.3999 192.682 2.82996 192.682Z" fill="#D8D8D8"/>
<path opacity="0.208682" fill-rule="evenodd" clip-rule="evenodd" d="M1917.17 143.682C1915.6 143.682 1914.34 142.339 1914.34 140.682C1914.34 139.025 1915.6 137.682 1917.17 137.682C1918.73 137.682 1920 139.025 1920 140.682C1920 142.339 1918.73 143.682 1917.17 143.682ZM1914.34 167.682C1914.34 169.339 1915.6 170.682 1917.17 170.682C1918.73 170.682 1920 169.339 1920 167.682C1920 166.025 1918.73 164.682 1917.17 164.682C1915.6 164.682 1914.34 166.025 1914.34 167.682ZM1855.45 167.682C1855.45 169.339 1856.71 170.682 1858.28 170.682C1859.84 170.682 1861.11 169.339 1861.11 167.682C1861.11 166.025 1859.84 164.682 1858.28 164.682C1856.71 164.682 1855.45 166.025 1855.45 167.682ZM1887.72 170.682C1886.16 170.682 1884.89 169.339 1884.89 167.682C1884.89 166.025 1886.16 164.682 1887.72 164.682C1889.29 164.682 1890.55 166.025 1890.55 167.682C1890.55 169.339 1889.29 170.682 1887.72 170.682ZM1826 167.682C1826 169.339 1827.27 170.682 1828.83 170.682C1830.39 170.682 1831.66 169.339 1831.66 167.682C1831.66 166.025 1830.39 164.682 1828.83 164.682C1827.27 164.682 1826 166.025 1826 167.682ZM1917.17 196.682C1915.6 196.682 1914.34 195.339 1914.34 193.682C1914.34 192.025 1915.6 190.682 1917.17 190.682C1918.73 190.682 1920 192.025 1920 193.682C1920 195.339 1918.73 196.682 1917.17 196.682ZM1858.28 196.682C1856.71 196.682 1855.45 195.339 1855.45 193.682C1855.45 192.025 1856.71 190.682 1858.28 190.682C1859.84 190.682 1861.11 192.025 1861.11 193.682C1861.11 195.339 1859.84 196.682 1858.28 196.682ZM1884.89 193.682C1884.89 195.339 1886.16 196.682 1887.72 196.682C1889.29 196.682 1890.55 195.339 1890.55 193.682C1890.55 192.025 1889.29 190.682 1887.72 190.682C1886.16 190.682 1884.89 192.025 1884.89 193.682ZM1828.83 196.682C1827.27 196.682 1826 195.339 1826 193.682C1826 192.025 1827.27 190.682 1828.83 190.682C1830.39 190.682 1831.66 192.025 1831.66 193.682C1831.66 195.339 1830.39 196.682 1828.83 196.682ZM1858.28 143.682C1856.71 143.682 1855.45 142.339 1855.45 140.682C1855.45 139.025 1856.71 137.682 1858.28 137.682C1859.84 137.682 1861.11 139.025 1861.11 140.682C1861.11 142.339 1859.84 143.682 1858.28 143.682ZM1884.89 140.682C1884.89 142.339 1886.16 143.682 1887.72 143.682C1889.29 143.682 1890.55 142.339 1890.55 140.682C1890.55 139.025 1889.29 137.682 1887.72 137.682C1886.16 137.682 1884.89 139.025 1884.89 140.682ZM1828.83 143.682C1827.27 143.682 1826 142.339 1826 140.682C1826 139.025 1827.27 137.682 1828.83 137.682C1830.39 137.682 1831.66 139.025 1831.66 140.682C1831.66 142.339 1830.39 143.682 1828.83 143.682ZM1796.34 220.682C1796.34 222.339 1797.6 223.682 1799.17 223.682C1800.73 223.682 1802 222.339 1802 220.682C1802 219.025 1800.73 217.682 1799.17 217.682C1797.6 217.682 1796.34 219.025 1796.34 220.682ZM1799.17 250.682C1797.6 250.682 1796.34 249.339 1796.34 247.682C1796.34 246.025 1797.6 244.682 1799.17 244.682C1800.73 244.682 1802 246.025 1802 247.682C1802 249.339 1800.73 250.682 1799.17 250.682ZM1740.28 250.682C1738.71 250.682 1737.45 249.339 1737.45 247.682C1737.45 246.025 1738.71 244.682 1740.28 244.682C1741.84 244.682 1743.11 246.025 1743.11 247.682C1743.11 249.339 1741.84 250.682 1740.28 250.682ZM1766.89 247.682C1766.89 249.339 1768.16 250.682 1769.72 250.682C1771.29 250.682 1772.55 249.339 1772.55 247.682C1772.55 246.025 1771.29 244.682 1769.72 244.682C1768.16 244.682 1766.89 246.025 1766.89 247.682ZM1710.83 250.682C1709.27 250.682 1708 249.339 1708 247.682C1708 246.025 1709.27 244.682 1710.83 244.682C1712.39 244.682 1713.66 246.025 1713.66 247.682C1713.66 249.339 1712.39 250.682 1710.83 250.682ZM1796.34 273.682C1796.34 275.339 1797.6 276.682 1799.17 276.682C1800.73 276.682 1802 275.339 1802 273.682C1802 272.025 1800.73 270.682 1799.17 270.682C1797.6 270.682 1796.34 272.025 1796.34 273.682ZM1737.45 273.682C1737.45 275.339 1738.71 276.682 1740.28 276.682C1741.84 276.682 1743.11 275.339 1743.11 273.682C1743.11 272.025 1741.84 270.682 1740.28 270.682C1738.71 270.682 1737.45 272.025 1737.45 273.682ZM1769.72 276.682C1768.16 276.682 1766.89 275.339 1766.89 273.682C1766.89 272.025 1768.16 270.682 1769.72 270.682C1771.29 270.682 1772.55 272.025 1772.55 273.682C1772.55 275.339 1771.29 276.682 1769.72 276.682ZM1708 273.682C1708 275.339 1709.27 276.682 1710.83 276.682C1712.39 276.682 1713.66 275.339 1713.66 273.682C1713.66 272.025 1712.39 270.682 1710.83 270.682C1709.27 270.682 1708 272.025 1708 273.682ZM1737.45 220.682C1737.45 222.339 1738.71 223.682 1740.28 223.682C1741.84 223.682 1743.11 222.339 1743.11 220.682C1743.11 219.025 1741.84 217.682 1740.28 217.682C1738.71 217.682 1737.45 219.025 1737.45 220.682ZM1769.72 223.682C1768.16 223.682 1766.89 222.339 1766.89 220.682C1766.89 219.025 1768.16 217.682 1769.72 217.682C1771.29 217.682 1772.55 219.025 1772.55 220.682C1772.55 222.339 1771.29 223.682 1769.72 223.682ZM1708 220.682C1708 222.339 1709.27 223.682 1710.83 223.682C1712.39 223.682 1713.66 222.339 1713.66 220.682C1713.66 219.025 1712.39 217.682 1710.83 217.682C1709.27 217.682 1708 219.025 1708 220.682ZM1796.34 140.682C1796.34 142.339 1797.6 143.682 1799.17 143.682C1800.73 143.682 1802 142.339 1802 140.682C1802 139.025 1800.73 137.682 1799.17 137.682C1797.6 137.682 1796.34 139.025 1796.34 140.682ZM1799.17 170.682C1797.6 170.682 1796.34 169.339 1796.34 167.682C1796.34 166.025 1797.6 164.682 1799.17 164.682C1800.73 164.682 1802 166.025 1802 167.682C1802 169.339 1800.73 170.682 1799.17 170.682ZM1740.28 170.682C1738.71 170.682 1737.45 169.339 1737.45 167.682C1737.45 166.025 1738.71 164.682 1740.28 164.682C1741.84 164.682 1743.11 166.025 1743.11 167.682C1743.11 169.339 1741.84 170.682 1740.28 170.682ZM1766.89 167.682C1766.89 169.339 1768.16 170.682 1769.72 170.682C1771.29 170.682 1772.55 169.339 1772.55 167.682C1772.55 166.025 1771.29 164.682 1769.72 164.682C1768.16 164.682 1766.89 166.025 1766.89 167.682ZM1710.83 170.682C1709.27 170.682 1708 169.339 1708 167.682C1708 166.025 1709.27 164.682 1710.83 164.682C1712.39 164.682 1713.66 166.025 1713.66 167.682C1713.66 169.339 1712.39 170.682 1710.83 170.682ZM1796.34 193.682C1796.34 195.339 1797.6 196.682 1799.17 196.682C1800.73 196.682 1802 195.339 1802 193.682C1802 192.025 1800.73 190.682 1799.17 190.682C1797.6 190.682 1796.34 192.025 1796.34 193.682ZM1737.45 193.682C1737.45 195.339 1738.71 196.682 1740.28 196.682C1741.84 196.682 1743.11 195.339 1743.11 193.682C1743.11 192.025 1741.84 190.682 1740.28 190.682C1738.71 190.682 1737.45 192.025 1737.45 193.682ZM1769.72 196.682C1768.16 196.682 1766.89 195.339 1766.89 193.682C1766.89 192.025 1768.16 190.682 1769.72 190.682C1771.29 190.682 1772.55 192.025 1772.55 193.682C1772.55 195.339 1771.29 196.682 1769.72 196.682ZM1708 193.682C1708 195.339 1709.27 196.682 1710.83 196.682C1712.39 196.682 1713.66 195.339 1713.66 193.682C1713.66 192.025 1712.39 190.682 1710.83 190.682C1709.27 190.682 1708 192.025 1708 193.682ZM1737.45 140.682C1737.45 142.339 1738.71 143.682 1740.28 143.682C1741.84 143.682 1743.11 142.339 1743.11 140.682C1743.11 139.025 1741.84 137.682 1740.28 137.682C1738.71 137.682 1737.45 139.025 1737.45 140.682ZM1769.72 143.682C1768.16 143.682 1766.89 142.339 1766.89 140.682C1766.89 139.025 1768.16 137.682 1769.72 137.682C1771.29 137.682 1772.55 139.025 1772.55 140.682C1772.55 142.339 1771.29 143.682 1769.72 143.682ZM1708 140.682C1708 142.339 1709.27 143.682 1710.83 143.682C1712.39 143.682 1713.66 142.339 1713.66 140.682C1713.66 139.025 1712.39 137.682 1710.83 137.682C1709.27 137.682 1708 139.025 1708 140.682ZM1681.17 223.682C1679.61 223.682 1678.34 222.339 1678.34 220.682C1678.34 219.025 1679.61 217.682 1681.17 217.682C1682.73 217.682 1684 219.025 1684 220.682C1684 222.339 1682.73 223.682 1681.17 223.682ZM1678.34 247.682C1678.34 249.339 1679.61 250.682 1681.17 250.682C1682.73 250.682 1684 249.339 1684 247.682C1684 246.025 1682.73 244.682 1681.17 244.682C1679.61 244.682 1678.34 246.025 1678.34 247.682ZM1619.45 247.682C1619.45 249.339 1620.71 250.682 1622.28 250.682C1623.84 250.682 1625.11 249.339 1625.11 247.682C1625.11 246.025 1623.84 244.682 1622.28 244.682C1620.71 244.682 1619.45 246.025 1619.45 247.682ZM1651.72 250.682C1650.16 250.682 1648.89 249.339 1648.89 247.682C1648.89 246.025 1650.16 244.682 1651.72 244.682C1653.29 244.682 1654.55 246.025 1654.55 247.682C1654.55 249.339 1653.29 250.682 1651.72 250.682ZM1590 247.682C1590 249.339 1591.27 250.682 1592.83 250.682C1594.39 250.682 1595.66 249.339 1595.66 247.682C1595.66 246.025 1594.39 244.682 1592.83 244.682C1591.27 244.682 1590 246.025 1590 247.682ZM1681.17 276.682C1679.61 276.682 1678.34 275.339 1678.34 273.682C1678.34 272.025 1679.61 270.682 1681.17 270.682C1682.73 270.682 1684 272.025 1684 273.682C1684 275.339 1682.73 276.682 1681.17 276.682ZM1622.28 276.682C1620.71 276.682 1619.45 275.339 1619.45 273.682C1619.45 272.025 1620.71 270.682 1622.28 270.682C1623.84 270.682 1625.11 272.025 1625.11 273.682C1625.11 275.339 1623.84 276.682 1622.28 276.682ZM1648.89 273.682C1648.89 275.339 1650.16 276.682 1651.72 276.682C1653.29 276.682 1654.55 275.339 1654.55 273.682C1654.55 272.025 1653.29 270.682 1651.72 270.682C1650.16 270.682 1648.89 272.025 1648.89 273.682ZM1592.83 276.682C1591.27 276.682 1590 275.339 1590 273.682C1590 272.025 1591.27 270.682 1592.83 270.682C1594.39 270.682 1595.66 272.025 1595.66 273.682C1595.66 275.339 1594.39 276.682 1592.83 276.682ZM1622.28 223.682C1620.71 223.682 1619.45 222.339 1619.45 220.682C1619.45 219.025 1620.71 217.682 1622.28 217.682C1623.84 217.682 1625.11 219.025 1625.11 220.682C1625.11 222.339 1623.84 223.682 1622.28 223.682ZM1648.89 220.682C1648.89 222.339 1650.16 223.682 1651.72 223.682C1653.29 223.682 1654.55 222.339 1654.55 220.682C1654.55 219.025 1653.29 217.682 1651.72 217.682C1650.16 217.682 1648.89 219.025 1648.89 220.682ZM1592.83 223.682C1591.27 223.682 1590 222.339 1590 220.682C1590 219.025 1591.27 217.682 1592.83 217.682C1594.39 217.682 1595.66 219.025 1595.66 220.682C1595.66 222.339 1594.39 223.682 1592.83 223.682ZM1561.34 301.682C1561.34 303.339 1562.61 304.682 1564.17 304.682C1565.73 304.682 1567 303.339 1567 301.682C1567 300.025 1565.73 298.682 1564.17 298.682C1562.61 298.682 1561.34 300.025 1561.34 301.682ZM1564.17 331.682C1562.61 331.682 1561.34 330.339 1561.34 328.682C1561.34 327.025 1562.61 325.682 1564.17 325.682C1565.73 325.682 1567 327.025 1567 328.682C1567 330.339 1565.73 331.682 1564.17 331.682ZM1505.28 331.682C1503.71 331.682 1502.45 330.339 1502.45 328.682C1502.45 327.025 1503.71 325.682 1505.28 325.682C1506.84 325.682 1508.11 327.025 1508.11 328.682C1508.11 330.339 1506.84 331.682 1505.28 331.682ZM1531.89 328.682C1531.89 330.339 1533.16 331.682 1534.72 331.682C1536.29 331.682 1537.55 330.339 1537.55 328.682C1537.55 327.025 1536.29 325.682 1534.72 325.682C1533.16 325.682 1531.89 327.025 1531.89 328.682ZM1475.83 331.682C1474.27 331.682 1473 330.339 1473 328.682C1473 327.025 1474.27 325.682 1475.83 325.682C1477.39 325.682 1478.66 327.025 1478.66 328.682C1478.66 330.339 1477.39 331.682 1475.83 331.682ZM1561.34 354.682C1561.34 356.339 1562.61 357.682 1564.17 357.682C1565.73 357.682 1567 356.339 1567 354.682C1567 353.025 1565.73 351.682 1564.17 351.682C1562.61 351.682 1561.34 353.025 1561.34 354.682ZM1502.45 354.682C1502.45 356.339 1503.71 357.682 1505.28 357.682C1506.84 357.682 1508.11 356.339 1508.11 354.682C1508.11 353.025 1506.84 351.682 1505.28 351.682C1503.71 351.682 1502.45 353.025 1502.45 354.682ZM1534.72 357.682C1533.16 357.682 1531.89 356.339 1531.89 354.682C1531.89 353.025 1533.16 351.682 1534.72 351.682C1536.29 351.682 1537.55 353.025 1537.55 354.682C1537.55 356.339 1536.29 357.682 1534.72 357.682ZM1473 354.682C1473 356.339 1474.27 357.682 1475.83 357.682C1477.39 357.682 1478.66 356.339 1478.66 354.682C1478.66 353.025 1477.39 351.682 1475.83 351.682C1474.27 351.682 1473 353.025 1473 354.682ZM1502.45 301.682C1502.45 303.339 1503.71 304.682 1505.28 304.682C1506.84 304.682 1508.11 303.339 1508.11 301.682C1508.11 300.025 1506.84 298.682 1505.28 298.682C1503.71 298.682 1502.45 300.025 1502.45 301.682ZM1534.72 304.682C1533.16 304.682 1531.89 303.339 1531.89 301.682C1531.89 300.025 1533.16 298.682 1534.72 298.682C1536.29 298.682 1537.55 300.025 1537.55 301.682C1537.55 303.339 1536.29 304.682 1534.72 304.682ZM1473 301.682C1473 303.339 1474.27 304.682 1475.83 304.682C1477.39 304.682 1478.66 303.339 1478.66 301.682C1478.66 300.025 1477.39 298.682 1475.83 298.682C1474.27 298.682 1473 300.025 1473 301.682ZM1446.17 384.682C1444.61 384.682 1443.34 383.339 1443.34 381.682C1443.34 380.025 1444.61 378.682 1446.17 378.682C1447.73 378.682 1449 380.025 1449 381.682C1449 383.339 1447.73 384.682 1446.17 384.682ZM1443.34 408.682C1443.34 410.339 1444.61 411.682 1446.17 411.682C1447.73 411.682 1449 410.339 1449 408.682C1449 407.025 1447.73 405.682 1446.17 405.682C1444.61 405.682 1443.34 407.025 1443.34 408.682ZM1384.45 408.682C1384.45 410.339 1385.71 411.682 1387.28 411.682C1388.84 411.682 1390.11 410.339 1390.11 408.682C1390.11 407.025 1388.84 405.682 1387.28 405.682C1385.71 405.682 1384.45 407.025 1384.45 408.682ZM1416.72 411.682C1415.16 411.682 1413.89 410.339 1413.89 408.682C1413.89 407.025 1415.16 405.682 1416.72 405.682C1418.29 405.682 1419.55 407.025 1419.55 408.682C1419.55 410.339 1418.29 411.682 1416.72 411.682ZM1355 408.682C1355 410.339 1356.27 411.682 1357.83 411.682C1359.4 411.682 1360.66 410.339 1360.66 408.682C1360.66 407.025 1359.4 405.682 1357.83 405.682C1356.27 405.682 1355 407.025 1355 408.682ZM1446.17 437.682C1444.61 437.682 1443.34 436.339 1443.34 434.682C1443.34 433.025 1444.61 431.682 1446.17 431.682C1447.73 431.682 1449 433.025 1449 434.682C1449 436.339 1447.73 437.682 1446.17 437.682ZM1387.28 437.682C1385.71 437.682 1384.45 436.339 1384.45 434.682C1384.45 433.025 1385.71 431.682 1387.28 431.682C1388.84 431.682 1390.11 433.025 1390.11 434.682C1390.11 436.339 1388.84 437.682 1387.28 437.682ZM1413.89 434.682C1413.89 436.339 1415.16 437.682 1416.72 437.682C1418.29 437.682 1419.55 436.339 1419.55 434.682C1419.55 433.025 1418.29 431.682 1416.72 431.682C1415.16 431.682 1413.89 433.025 1413.89 434.682ZM1357.83 437.682C1356.27 437.682 1355 436.339 1355 434.682C1355 433.025 1356.27 431.682 1357.83 431.682C1359.4 431.682 1360.66 433.025 1360.66 434.682C1360.66 436.339 1359.4 437.682 1357.83 437.682ZM1387.28 384.682C1385.71 384.682 1384.45 383.339 1384.45 381.682C1384.45 380.025 1385.71 378.682 1387.28 378.682C1388.84 378.682 1390.11 380.025 1390.11 381.682C1390.11 383.339 1388.84 384.682 1387.28 384.682ZM1413.89 381.682C1413.89 383.339 1415.16 384.682 1416.72 384.682C1418.29 384.682 1419.55 383.339 1419.55 381.682C1419.55 380.025 1418.29 378.682 1416.72 378.682C1415.16 378.682 1413.89 380.025 1413.89 381.682ZM1357.83 384.682C1356.27 384.682 1355 383.339 1355 381.682C1355 380.025 1356.27 378.682 1357.83 378.682C1359.4 378.682 1360.66 380.025 1360.66 381.682C1360.66 383.339 1359.4 384.682 1357.83 384.682ZM1446.17 304.682C1444.61 304.682 1443.34 303.339 1443.34 301.682C1443.34 300.025 1444.61 298.682 1446.17 298.682C1447.73 298.682 1449 300.025 1449 301.682C1449 303.339 1447.73 304.682 1446.17 304.682ZM1443.34 328.682C1443.34 330.339 1444.61 331.682 1446.17 331.682C1447.73 331.682 1449 330.339 1449 328.682C1449 327.025 1447.73 325.682 1446.17 325.682C1444.61 325.682 1443.34 327.025 1443.34 328.682ZM1384.45 328.682C1384.45 330.339 1385.71 331.682 1387.28 331.682C1388.84 331.682 1390.11 330.339 1390.11 328.682C1390.11 327.025 1388.84 325.682 1387.28 325.682C1385.71 325.682 1384.45 327.025 1384.45 328.682ZM1416.72 331.682C1415.16 331.682 1413.89 330.339 1413.89 328.682C1413.89 327.025 1415.16 325.682 1416.72 325.682C1418.29 325.682 1419.55 327.025 1419.55 328.682C1419.55 330.339 1418.29 331.682 1416.72 331.682ZM1355 328.682C1355 330.339 1356.27 331.682 1357.83 331.682C1359.4 331.682 1360.66 330.339 1360.66 328.682C1360.66 327.025 1359.4 325.682 1357.83 325.682C1356.27 325.682 1355 327.025 1355 328.682ZM1446.17 357.682C1444.61 357.682 1443.34 356.339 1443.34 354.682C1443.34 353.025 1444.61 351.682 1446.17 351.682C1447.73 351.682 1449 353.025 1449 354.682C1449 356.339 1447.73 357.682 1446.17 357.682ZM1387.28 357.682C1385.71 357.682 1384.45 356.339 1384.45 354.682C1384.45 353.025 1385.71 351.682 1387.28 351.682C1388.84 351.682 1390.11 353.025 1390.11 354.682C1390.11 356.339 1388.84 357.682 1387.28 357.682ZM1413.89 354.682C1413.89 356.339 1415.16 357.682 1416.72 357.682C1418.29 357.682 1419.55 356.339 1419.55 354.682C1419.55 353.025 1418.29 351.682 1416.72 351.682C1415.16 351.682 1413.89 353.025 1413.89 354.682ZM1357.83 357.682C1356.27 357.682 1355 356.339 1355 354.682C1355 353.025 1356.27 351.682 1357.83 351.682C1359.4 351.682 1360.66 353.025 1360.66 354.682C1360.66 356.339 1359.4 357.682 1357.83 357.682ZM1387.28 304.682C1385.71 304.682 1384.45 303.339 1384.45 301.682C1384.45 300.025 1385.71 298.682 1387.28 298.682C1388.84 298.682 1390.11 300.025 1390.11 301.682C1390.11 303.339 1388.84 304.682 1387.28 304.682ZM1413.89 301.682C1413.89 303.339 1415.16 304.682 1416.72 304.682C1418.29 304.682 1419.55 303.339 1419.55 301.682C1419.55 300.025 1418.29 298.682 1416.72 298.682C1415.16 298.682 1413.89 300.025 1413.89 301.682ZM1357.83 304.682C1356.27 304.682 1355 303.339 1355 301.682C1355 300.025 1356.27 298.682 1357.83 298.682C1359.4 298.682 1360.66 300.025 1360.66 301.682C1360.66 303.339 1359.4 304.682 1357.83 304.682ZM1325.34 381.682C1325.34 383.339 1326.6 384.682 1328.17 384.682C1329.73 384.682 1331 383.339 1331 381.682C1331 380.025 1329.73 378.682 1328.17 378.682C1326.6 378.682 1325.34 380.025 1325.34 381.682ZM1328.17 411.682C1326.6 411.682 1325.34 410.339 1325.34 408.682C1325.34 407.025 1326.6 405.682 1328.17 405.682C1329.73 405.682 1331 407.025 1331 408.682C1331 410.339 1329.73 411.682 1328.17 411.682ZM1269.28 411.682C1267.71 411.682 1266.45 410.339 1266.45 408.682C1266.45 407.025 1267.71 405.682 1269.28 405.682C1270.84 405.682 1272.11 407.025 1272.11 408.682C1272.11 410.339 1270.84 411.682 1269.28 411.682ZM1295.89 408.682C1295.89 410.339 1297.16 411.682 1298.72 411.682C1300.29 411.682 1301.55 410.339 1301.55 408.682C1301.55 407.025 1300.29 405.682 1298.72 405.682C1297.16 405.682 1295.89 407.025 1295.89 408.682ZM1239.83 411.682C1238.27 411.682 1237 410.339 1237 408.682C1237 407.025 1238.27 405.682 1239.83 405.682C1241.4 405.682 1242.66 407.025 1242.66 408.682C1242.66 410.339 1241.4 411.682 1239.83 411.682ZM1325.34 434.682C1325.34 436.339 1326.6 437.682 1328.17 437.682C1329.73 437.682 1331 436.339 1331 434.682C1331 433.025 1329.73 431.682 1328.17 431.682C1326.6 431.682 1325.34 433.025 1325.34 434.682ZM1266.45 434.682C1266.45 436.339 1267.71 437.682 1269.28 437.682C1270.84 437.682 1272.11 436.339 1272.11 434.682C1272.11 433.025 1270.84 431.682 1269.28 431.682C1267.71 431.682 1266.45 433.025 1266.45 434.682ZM1298.72 437.682C1297.16 437.682 1295.89 436.339 1295.89 434.682C1295.89 433.025 1297.16 431.682 1298.72 431.682C1300.29 431.682 1301.55 433.025 1301.55 434.682C1301.55 436.339 1300.29 437.682 1298.72 437.682ZM1237 434.682C1237 436.339 1238.27 437.682 1239.83 437.682C1241.4 437.682 1242.66 436.339 1242.66 434.682C1242.66 433.025 1241.4 431.682 1239.83 431.682C1238.27 431.682 1237 433.025 1237 434.682ZM1266.45 381.682C1266.45 383.339 1267.71 384.682 1269.28 384.682C1270.84 384.682 1272.11 383.339 1272.11 381.682C1272.11 380.025 1270.84 378.682 1269.28 378.682C1267.71 378.682 1266.45 380.025 1266.45 381.682ZM1298.72 384.682C1297.16 384.682 1295.89 383.339 1295.89 381.682C1295.89 380.025 1297.16 378.682 1298.72 378.682C1300.29 378.682 1301.55 380.025 1301.55 381.682C1301.55 383.339 1300.29 384.682 1298.72 384.682ZM1237 381.682C1237 383.339 1238.27 384.682 1239.83 384.682C1241.4 384.682 1242.66 383.339 1242.66 381.682C1242.66 380.025 1241.4 378.682 1239.83 378.682C1238.27 378.682 1237 380.025 1237 381.682ZM1324.34 301.682C1324.34 303.339 1325.6 304.682 1327.17 304.682C1328.73 304.682 1330 303.339 1330 301.682C1330 300.025 1328.73 298.682 1327.17 298.682C1325.6 298.682 1324.34 300.025 1324.34 301.682ZM1327.17 331.682C1325.6 331.682 1324.34 330.339 1324.34 328.682C1324.34 327.025 1325.6 325.682 1327.17 325.682C1328.73 325.682 1330 327.025 1330 328.682C1330 330.339 1328.73 331.682 1327.17 331.682ZM1268.28 331.682C1266.71 331.682 1265.45 330.339 1265.45 328.682C1265.45 327.025 1266.71 325.682 1268.28 325.682C1269.84 325.682 1271.11 327.025 1271.11 328.682C1271.11 330.339 1269.84 331.682 1268.28 331.682ZM1294.89 328.682C1294.89 330.339 1296.16 331.682 1297.72 331.682C1299.29 331.682 1300.55 330.339 1300.55 328.682C1300.55 327.025 1299.29 325.682 1297.72 325.682C1296.16 325.682 1294.89 327.025 1294.89 328.682ZM1238.83 331.682C1237.27 331.682 1236 330.339 1236 328.682C1236 327.025 1237.27 325.682 1238.83 325.682C1240.4 325.682 1241.66 327.025 1241.66 328.682C1241.66 330.339 1240.4 331.682 1238.83 331.682ZM1324.34 354.682C1324.34 356.339 1325.6 357.682 1327.17 357.682C1328.73 357.682 1330 356.339 1330 354.682C1330 353.025 1328.73 351.682 1327.17 351.682C1325.6 351.682 1324.34 353.025 1324.34 354.682ZM1265.45 354.682C1265.45 356.339 1266.71 357.682 1268.28 357.682C1269.84 357.682 1271.11 356.339 1271.11 354.682C1271.11 353.025 1269.84 351.682 1268.28 351.682C1266.71 351.682 1265.45 353.025 1265.45 354.682ZM1297.72 357.682C1296.16 357.682 1294.89 356.339 1294.89 354.682C1294.89 353.025 1296.16 351.682 1297.72 351.682C1299.29 351.682 1300.55 353.025 1300.55 354.682C1300.55 356.339 1299.29 357.682 1297.72 357.682ZM1236 354.682C1236 356.339 1237.27 357.682 1238.83 357.682C1240.4 357.682 1241.66 356.339 1241.66 354.682C1241.66 353.025 1240.4 351.682 1238.83 351.682C1237.27 351.682 1236 353.025 1236 354.682ZM1265.45 301.682C1265.45 303.339 1266.71 304.682 1268.28 304.682C1269.84 304.682 1271.11 303.339 1271.11 301.682C1271.11 300.025 1269.84 298.682 1268.28 298.682C1266.71 298.682 1265.45 300.025 1265.45 301.682ZM1297.72 304.682C1296.16 304.682 1294.89 303.339 1294.89 301.682C1294.89 300.025 1296.16 298.682 1297.72 298.682C1299.29 298.682 1300.55 300.025 1300.55 301.682C1300.55 303.339 1299.29 304.682 1297.72 304.682ZM1236 301.682C1236 303.339 1237.27 304.682 1238.83 304.682C1240.4 304.682 1241.66 303.339 1241.66 301.682C1241.66 300.025 1240.4 298.682 1238.83 298.682C1237.27 298.682 1236 300.025 1236 301.682ZM1209.17 384.682C1207.6 384.682 1206.34 383.339 1206.34 381.682C1206.34 380.025 1207.6 378.682 1209.17 378.682C1210.73 378.682 1212 380.025 1212 381.682C1212 383.339 1210.73 384.682 1209.17 384.682ZM1206.34 408.682C1206.34 410.339 1207.6 411.682 1209.17 411.682C1210.73 411.682 1212 410.339 1212 408.682C1212 407.025 1210.73 405.682 1209.17 405.682C1207.6 405.682 1206.34 407.025 1206.34 408.682ZM1147.45 408.682C1147.45 410.339 1148.71 411.682 1150.28 411.682C1151.84 411.682 1153.11 410.339 1153.11 408.682C1153.11 407.025 1151.84 405.682 1150.28 405.682C1148.71 405.682 1147.45 407.025 1147.45 408.682ZM1179.72 411.682C1178.16 411.682 1176.89 410.339 1176.89 408.682C1176.89 407.025 1178.16 405.682 1179.72 405.682C1181.29 405.682 1182.55 407.025 1182.55 408.682C1182.55 410.339 1181.29 411.682 1179.72 411.682ZM1118 408.682C1118 410.339 1119.27 411.682 1120.83 411.682C1122.4 411.682 1123.66 410.339 1123.66 408.682C1123.66 407.025 1122.4 405.682 1120.83 405.682C1119.27 405.682 1118 407.025 1118 408.682ZM1209.17 437.682C1207.6 437.682 1206.34 436.339 1206.34 434.682C1206.34 433.025 1207.6 431.682 1209.17 431.682C1210.73 431.682 1212 433.025 1212 434.682C1212 436.339 1210.73 437.682 1209.17 437.682ZM1150.28 437.682C1148.71 437.682 1147.45 436.339 1147.45 434.682C1147.45 433.025 1148.71 431.682 1150.28 431.682C1151.84 431.682 1153.11 433.025 1153.11 434.682C1153.11 436.339 1151.84 437.682 1150.28 437.682ZM1176.89 434.682C1176.89 436.339 1178.16 437.682 1179.72 437.682C1181.29 437.682 1182.55 436.339 1182.55 434.682C1182.55 433.025 1181.29 431.682 1179.72 431.682C1178.16 431.682 1176.89 433.025 1176.89 434.682ZM1120.83 437.682C1119.27 437.682 1118 436.339 1118 434.682C1118 433.025 1119.27 431.682 1120.83 431.682C1122.4 431.682 1123.66 433.025 1123.66 434.682C1123.66 436.339 1122.4 437.682 1120.83 437.682ZM1150.28 384.682C1148.71 384.682 1147.45 383.339 1147.45 381.682C1147.45 380.025 1148.71 378.682 1150.28 378.682C1151.84 378.682 1153.11 380.025 1153.11 381.682C1153.11 383.339 1151.84 384.682 1150.28 384.682ZM1176.89 381.682C1176.89 383.339 1178.16 384.682 1179.72 384.682C1181.29 384.682 1182.55 383.339 1182.55 381.682C1182.55 380.025 1181.29 378.682 1179.72 378.682C1178.16 378.682 1176.89 380.025 1176.89 381.682ZM1120.83 384.682C1119.27 384.682 1118 383.339 1118 381.682C1118 380.025 1119.27 378.682 1120.83 378.682C1122.4 378.682 1123.66 380.025 1123.66 381.682C1123.66 383.339 1122.4 384.682 1120.83 384.682ZM1209.17 304.682C1207.6 304.682 1206.34 303.339 1206.34 301.682C1206.34 300.025 1207.6 298.682 1209.17 298.682C1210.73 298.682 1212 300.025 1212 301.682C1212 303.339 1210.73 304.682 1209.17 304.682ZM1206.34 328.682C1206.34 330.339 1207.6 331.682 1209.17 331.682C1210.73 331.682 1212 330.339 1212 328.682C1212 327.025 1210.73 325.682 1209.17 325.682C1207.6 325.682 1206.34 327.025 1206.34 328.682ZM1147.45 328.682C1147.45 330.339 1148.71 331.682 1150.28 331.682C1151.84 331.682 1153.11 330.339 1153.11 328.682C1153.11 327.025 1151.84 325.682 1150.28 325.682C1148.71 325.682 1147.45 327.025 1147.45 328.682ZM1179.72 331.682C1178.16 331.682 1176.89 330.339 1176.89 328.682C1176.89 327.025 1178.16 325.682 1179.72 325.682C1181.29 325.682 1182.55 327.025 1182.55 328.682C1182.55 330.339 1181.29 331.682 1179.72 331.682ZM1118 328.682C1118 330.339 1119.27 331.682 1120.83 331.682C1122.4 331.682 1123.66 330.339 1123.66 328.682C1123.66 327.025 1122.4 325.682 1120.83 325.682C1119.27 325.682 1118 327.025 1118 328.682ZM1209.17 357.682C1207.6 357.682 1206.34 356.339 1206.34 354.682C1206.34 353.025 1207.6 351.682 1209.17 351.682C1210.73 351.682 1212 353.025 1212 354.682C1212 356.339 1210.73 357.682 1209.17 357.682ZM1150.28 357.682C1148.71 357.682 1147.45 356.339 1147.45 354.682C1147.45 353.025 1148.71 351.682 1150.28 351.682C1151.84 351.682 1153.11 353.025 1153.11 354.682C1153.11 356.339 1151.84 357.682 1150.28 357.682ZM1176.89 354.682C1176.89 356.339 1178.16 357.682 1179.72 357.682C1181.29 357.682 1182.55 356.339 1182.55 354.682C1182.55 353.025 1181.29 351.682 1179.72 351.682C1178.16 351.682 1176.89 353.025 1176.89 354.682ZM1120.83 357.682C1119.27 357.682 1118 356.339 1118 354.682C1118 353.025 1119.27 351.682 1120.83 351.682C1122.4 351.682 1123.66 353.025 1123.66 354.682C1123.66 356.339 1122.4 357.682 1120.83 357.682ZM1150.28 304.682C1148.71 304.682 1147.45 303.339 1147.45 301.682C1147.45 300.025 1148.71 298.682 1150.28 298.682C1151.84 298.682 1153.11 300.025 1153.11 301.682C1153.11 303.339 1151.84 304.682 1150.28 304.682ZM1176.89 301.682C1176.89 303.339 1178.16 304.682 1179.72 304.682C1181.29 304.682 1182.55 303.339 1182.55 301.682C1182.55 300.025 1181.29 298.682 1179.72 298.682C1178.16 298.682 1176.89 300.025 1176.89 301.682ZM1120.83 304.682C1119.27 304.682 1118 303.339 1118 301.682C1118 300.025 1119.27 298.682 1120.83 298.682C1122.4 298.682 1123.66 300.025 1123.66 301.682C1123.66 303.339 1122.4 304.682 1120.83 304.682ZM1088.34 381.682C1088.34 383.339 1089.6 384.682 1091.17 384.682C1092.73 384.682 1094 383.339 1094 381.682C1094 380.025 1092.73 378.682 1091.17 378.682C1089.6 378.682 1088.34 380.025 1088.34 381.682ZM1091.17 411.682C1089.6 411.682 1088.34 410.339 1088.34 408.682C1088.34 407.025 1089.6 405.682 1091.17 405.682C1092.73 405.682 1094 407.025 1094 408.682C1094 410.339 1092.73 411.682 1091.17 411.682ZM1032.28 411.682C1030.71 411.682 1029.45 410.339 1029.45 408.682C1029.45 407.025 1030.71 405.682 1032.28 405.682C1033.84 405.682 1035.11 407.025 1035.11 408.682C1035.11 410.339 1033.84 411.682 1032.28 411.682ZM1058.89 408.682C1058.89 410.339 1060.16 411.682 1061.72 411.682C1063.29 411.682 1064.55 410.339 1064.55 408.682C1064.55 407.025 1063.29 405.682 1061.72 405.682C1060.16 405.682 1058.89 407.025 1058.89 408.682ZM1002.83 411.682C1001.27 411.682 1000 410.339 1000 408.682C1000 407.025 1001.27 405.682 1002.83 405.682C1004.4 405.682 1005.66 407.025 1005.66 408.682C1005.66 410.339 1004.4 411.682 1002.83 411.682ZM1088.34 434.682C1088.34 436.339 1089.6 437.682 1091.17 437.682C1092.73 437.682 1094 436.339 1094 434.682C1094 433.025 1092.73 431.682 1091.17 431.682C1089.6 431.682 1088.34 433.025 1088.34 434.682ZM1029.45 434.682C1029.45 436.339 1030.71 437.682 1032.28 437.682C1033.84 437.682 1035.11 436.339 1035.11 434.682C1035.11 433.025 1033.84 431.682 1032.28 431.682C1030.71 431.682 1029.45 433.025 1029.45 434.682ZM1061.72 437.682C1060.16 437.682 1058.89 436.339 1058.89 434.682C1058.89 433.025 1060.16 431.682 1061.72 431.682C1063.29 431.682 1064.55 433.025 1064.55 434.682C1064.55 436.339 1063.29 437.682 1061.72 437.682ZM1000 434.682C1000 436.339 1001.27 437.682 1002.83 437.682C1004.4 437.682 1005.66 436.339 1005.66 434.682C1005.66 433.025 1004.4 431.682 1002.83 431.682C1001.27 431.682 1000 433.025 1000 434.682ZM1029.45 381.682C1029.45 383.339 1030.71 384.682 1032.28 384.682C1033.84 384.682 1035.11 383.339 1035.11 381.682C1035.11 380.025 1033.84 378.682 1032.28 378.682C1030.71 378.682 1029.45 380.025 1029.45 381.682ZM1061.72 384.682C1060.16 384.682 1058.89 383.339 1058.89 381.682C1058.89 380.025 1060.16 378.682 1061.72 378.682C1063.29 378.682 1064.55 380.025 1064.55 381.682C1064.55 383.339 1063.29 384.682 1061.72 384.682ZM1000 381.682C1000 383.339 1001.27 384.682 1002.83 384.682C1004.4 384.682 1005.66 383.339 1005.66 381.682C1005.66 380.025 1004.4 378.682 1002.83 378.682C1001.27 378.682 1000 380.025 1000 381.682ZM974.169 465.682C972.605 465.682 971.337 464.339 971.337 462.682C971.337 461.025 972.605 459.682 974.169 459.682C975.732 459.682 977 461.025 977 462.682C977 464.339 975.732 465.682 974.169 465.682ZM971.337 489.682C971.337 491.339 972.605 492.682 974.169 492.682C975.732 492.682 977 491.339 977 489.682C977 488.025 975.732 486.682 974.169 486.682C972.605 486.682 971.337 488.025 971.337 489.682ZM912.45 489.682C912.45 491.339 913.71 492.682 915.28 492.682C916.84 492.682 918.11 491.339 918.11 489.682C918.11 488.025 916.84 486.682 915.28 486.682C913.71 486.682 912.45 488.025 912.45 489.682ZM944.723 492.682C943.159 492.682 941.892 491.339 941.892 489.682C941.892 488.025 943.159 486.682 944.723 486.682C946.287 486.682 947.554 488.025 947.554 489.682C947.554 491.339 946.287 492.682 944.723 492.682ZM883 489.682C883 491.339 884.27 492.682 885.83 492.682C887.4 492.682 888.66 491.339 888.66 489.682C888.66 488.025 887.4 486.682 885.83 486.682C884.27 486.682 883 488.025 883 489.682ZM974.169 518.682C972.605 518.682 971.337 517.339 971.337 515.682C971.337 514.025 972.605 512.682 974.169 512.682C975.732 512.682 977 514.025 977 515.682C977 517.339 975.732 518.682 974.169 518.682ZM915.28 518.682C913.71 518.682 912.45 517.339 912.45 515.682C912.45 514.025 913.71 512.682 915.28 512.682C916.84 512.682 918.11 514.025 918.11 515.682C918.11 517.339 916.84 518.682 915.28 518.682ZM941.892 515.682C941.892 517.339 943.159 518.682 944.723 518.682C946.287 518.682 947.554 517.339 947.554 515.682C947.554 514.025 946.287 512.682 944.723 512.682C943.159 512.682 941.892 514.025 941.892 515.682ZM885.83 518.682C884.27 518.682 883 517.339 883 515.682C883 514.025 884.27 512.682 885.83 512.682C887.4 512.682 888.66 514.025 888.66 515.682C888.66 517.339 887.4 518.682 885.83 518.682ZM915.28 465.682C913.71 465.682 912.45 464.339 912.45 462.682C912.45 461.025 913.71 459.682 915.28 459.682C916.84 459.682 918.11 461.025 918.11 462.682C918.11 464.339 916.84 465.682 915.28 465.682ZM941.892 462.682C941.892 464.339 943.159 465.682 944.723 465.682C946.287 465.682 947.554 464.339 947.554 462.682C947.554 461.025 946.287 459.682 944.723 459.682C943.159 459.682 941.892 461.025 941.892 462.682ZM885.83 465.682C884.27 465.682 883 464.339 883 462.682C883 461.025 884.27 459.682 885.83 459.682C887.4 459.682 888.66 461.025 888.66 462.682C888.66 464.339 887.4 465.682 885.83 465.682ZM853.34 542.682C853.34 544.339 854.6 545.682 856.17 545.682C857.73 545.682 859 544.339 859 542.682C859 541.025 857.73 539.682 856.17 539.682C854.6 539.682 853.34 541.025 853.34 542.682ZM856.17 572.682C854.6 572.682 853.34 571.339 853.34 569.682C853.34 568.025 854.6 566.682 856.17 566.682C857.73 566.682 859 568.025 859 569.682C859 571.339 857.73 572.682 856.17 572.682ZM797.28 572.682C795.71 572.682 794.45 571.339 794.45 569.682C794.45 568.025 795.71 566.682 797.28 566.682C798.84 566.682 800.11 568.025 800.11 569.682C800.11 571.339 798.84 572.682 797.28 572.682ZM823.89 569.682C823.89 571.339 825.16 572.682 826.72 572.682C828.29 572.682 829.55 571.339 829.55 569.682C829.55 568.025 828.29 566.682 826.72 566.682C825.16 566.682 823.89 568.025 823.89 569.682ZM767.83 572.682C766.27 572.682 765 571.339 765 569.682C765 568.025 766.27 566.682 767.83 566.682C769.4 566.682 770.66 568.025 770.66 569.682C770.66 571.339 769.4 572.682 767.83 572.682ZM853.34 595.682C853.34 597.339 854.6 598.682 856.17 598.682C857.73 598.682 859 597.339 859 595.682C859 594.025 857.73 592.682 856.17 592.682C854.6 592.682 853.34 594.025 853.34 595.682ZM794.45 595.682C794.45 597.339 795.71 598.682 797.28 598.682C798.84 598.682 800.11 597.339 800.11 595.682C800.11 594.025 798.84 592.682 797.28 592.682C795.71 592.682 794.45 594.025 794.45 595.682ZM826.72 598.682C825.16 598.682 823.89 597.339 823.89 595.682C823.89 594.025 825.16 592.682 826.72 592.682C828.29 592.682 829.55 594.025 829.55 595.682C829.55 597.339 828.29 598.682 826.72 598.682ZM765 595.682C765 597.339 766.27 598.682 767.83 598.682C769.4 598.682 770.66 597.339 770.66 595.682C770.66 594.025 769.4 592.682 767.83 592.682C766.27 592.682 765 594.025 765 595.682ZM794.45 542.682C794.45 544.339 795.71 545.682 797.28 545.682C798.84 545.682 800.11 544.339 800.11 542.682C800.11 541.025 798.84 539.682 797.28 539.682C795.71 539.682 794.45 541.025 794.45 542.682ZM826.72 545.682C825.16 545.682 823.89 544.339 823.89 542.682C823.89 541.025 825.16 539.682 826.72 539.682C828.29 539.682 829.55 541.025 829.55 542.682C829.55 544.339 828.29 545.682 826.72 545.682ZM765 542.682C765 544.339 766.27 545.682 767.83 545.682C769.4 545.682 770.66 544.339 770.66 542.682C770.66 541.025 769.4 539.682 767.83 539.682C766.27 539.682 765 541.025 765 542.682ZM853.34 462.682C853.34 464.339 854.6 465.682 856.17 465.682C857.73 465.682 859 464.339 859 462.682C859 461.025 857.73 459.682 856.17 459.682C854.6 459.682 853.34 461.025 853.34 462.682ZM856.17 492.682C854.6 492.682 853.34 491.339 853.34 489.682C853.34 488.025 854.6 486.682 856.17 486.682C857.73 486.682 859 488.025 859 489.682C859 491.339 857.73 492.682 856.17 492.682ZM797.28 492.682C795.71 492.682 794.45 491.339 794.45 489.682C794.45 488.025 795.71 486.682 797.28 486.682C798.84 486.682 800.11 488.025 800.11 489.682C800.11 491.339 798.84 492.682 797.28 492.682ZM823.89 489.682C823.89 491.339 825.16 492.682 826.72 492.682C828.29 492.682 829.55 491.339 829.55 489.682C829.55 488.025 828.29 486.682 826.72 486.682C825.16 486.682 823.89 488.025 823.89 489.682ZM767.83 492.682C766.27 492.682 765 491.339 765 489.682C765 488.025 766.27 486.682 767.83 486.682C769.4 486.682 770.66 488.025 770.66 489.682C770.66 491.339 769.4 492.682 767.83 492.682ZM853.34 515.682C853.34 517.339 854.6 518.682 856.17 518.682C857.73 518.682 859 517.339 859 515.682C859 514.025 857.73 512.682 856.17 512.682C854.6 512.682 853.34 514.025 853.34 515.682ZM794.45 515.682C794.45 517.339 795.71 518.682 797.28 518.682C798.84 518.682 800.11 517.339 800.11 515.682C800.11 514.025 798.84 512.682 797.28 512.682C795.71 512.682 794.45 514.025 794.45 515.682ZM826.72 518.682C825.16 518.682 823.89 517.339 823.89 515.682C823.89 514.025 825.16 512.682 826.72 512.682C828.29 512.682 829.55 514.025 829.55 515.682C829.55 517.339 828.29 518.682 826.72 518.682ZM765 515.682C765 517.339 766.27 518.682 767.83 518.682C769.4 518.682 770.66 517.339 770.66 515.682C770.66 514.025 769.4 512.682 767.83 512.682C766.27 512.682 765 514.025 765 515.682ZM794.45 462.682C794.45 464.339 795.71 465.682 797.28 465.682C798.84 465.682 800.11 464.339 800.11 462.682C800.11 461.025 798.84 459.682 797.28 459.682C795.71 459.682 794.45 461.025 794.45 462.682ZM826.72 465.682C825.16 465.682 823.89 464.339 823.89 462.682C823.89 461.025 825.16 459.682 826.72 459.682C828.29 459.682 829.55 461.025 829.55 462.682C829.55 464.339 828.29 465.682 826.72 465.682ZM765 462.682C765 464.339 766.27 465.682 767.83 465.682C769.4 465.682 770.66 464.339 770.66 462.682C770.66 461.025 769.4 459.682 767.83 459.682C766.27 459.682 765 461.025 765 462.682ZM738.17 545.682C736.6 545.682 735.34 544.339 735.34 542.682C735.34 541.025 736.6 539.682 738.17 539.682C739.73 539.682 741 541.025 741 542.682C741 544.339 739.73 545.682 738.17 545.682ZM735.34 569.682C735.34 571.339 736.6 572.682 738.17 572.682C739.73 572.682 741 571.339 741 569.682C741 568.025 739.73 566.682 738.17 566.682C736.6 566.682 735.34 568.025 735.34 569.682ZM676.45 569.682C676.45 571.339 677.71 572.682 679.28 572.682C680.84 572.682 682.11 571.339 682.11 569.682C682.11 568.025 680.84 566.682 679.28 566.682C677.71 566.682 676.45 568.025 676.45 569.682ZM708.72 572.682C707.16 572.682 705.89 571.339 705.89 569.682C705.89 568.025 707.16 566.682 708.72 566.682C710.29 566.682 711.55 568.025 711.55 569.682C711.55 571.339 710.29 572.682 708.72 572.682ZM647 569.682C647 571.339 648.27 572.682 649.83 572.682C651.4 572.682 652.66 571.339 652.66 569.682C652.66 568.025 651.4 566.682 649.83 566.682C648.27 566.682 647 568.025 647 569.682ZM738.17 598.682C736.6 598.682 735.34 597.339 735.34 595.682C735.34 594.025 736.6 592.682 738.17 592.682C739.73 592.682 741 594.025 741 595.682C741 597.339 739.73 598.682 738.17 598.682ZM679.28 598.682C677.71 598.682 676.45 597.339 676.45 595.682C676.45 594.025 677.71 592.682 679.28 592.682C680.84 592.682 682.11 594.025 682.11 595.682C682.11 597.339 680.84 598.682 679.28 598.682ZM705.89 595.682C705.89 597.339 707.16 598.682 708.72 598.682C710.29 598.682 711.55 597.339 711.55 595.682C711.55 594.025 710.29 592.682 708.72 592.682C707.16 592.682 705.89 594.025 705.89 595.682ZM649.83 598.682C648.27 598.682 647 597.339 647 595.682C647 594.025 648.27 592.682 649.83 592.682C651.4 592.682 652.66 594.025 652.66 595.682C652.66 597.339 651.4 598.682 649.83 598.682ZM679.28 545.682C677.71 545.682 676.45 544.339 676.45 542.682C676.45 541.025 677.71 539.682 679.28 539.682C680.84 539.682 682.11 541.025 682.11 542.682C682.11 544.339 680.84 545.682 679.28 545.682ZM705.89 542.682C705.89 544.339 707.16 545.682 708.72 545.682C710.29 545.682 711.55 544.339 711.55 542.682C711.55 541.025 710.29 539.682 708.72 539.682C707.16 539.682 705.89 541.025 705.89 542.682ZM649.83 545.682C648.27 545.682 647 544.339 647 542.682C647 541.025 648.27 539.682 649.83 539.682C651.4 539.682 652.66 541.025 652.66 542.682C652.66 544.339 651.4 545.682 649.83 545.682Z" fill="#D8D8D8"/>
</g>
<defs>
<clipPath id="clip0_325_3413">
<rect width="1920" height="508" fill="white" transform="matrix(-1 0 0 1 1920 0.681885)"/>
</clipPath>
</defs>
</svg>
