<svg width="80" height="81" viewBox="0 0 80 81" fill="none" xmlns="http://www.w3.org/2000/svg">
<path d="M75 10.1819H5C2.24375 10.1819 0 12.4241 0 15.1819V65.1819C0 67.9381 2.24375 70.1819 5 70.1819H75C77.7562 70.1819 80 67.9381 80 65.1819V15.1819C80 12.4241 77.7562 10.1819 75 10.1819ZM57.9781 12.6819L56.7281 15.1819H23.2734L22.0234 12.6819H57.9781ZM77.5 65.1819C77.5 66.56 76.3781 67.6819 75 67.6819H5C3.62188 67.6819 2.5 66.56 2.5 65.1819V15.1819C2.5 13.8038 3.62188 12.6819 5 12.6819H19.2281L21.3828 16.9913C21.5953 17.4147 22.0266 17.6819 22.5016 17.6819H57.5016C57.975 17.6819 58.4078 17.4147 58.6203 16.9913L60.775 12.6819H75.0031C76.3812 12.6819 77.5031 13.8038 77.5031 15.1819V65.1819H77.5Z" fill="white"/>
<path d="M68.75 55.1819H66.25V33.9319C66.25 33.2413 65.6906 32.6819 65 32.6819H60C59.3094 32.6819 58.75 33.2413 58.75 33.9319V55.1819H51.25V43.9319C51.25 43.2413 50.6906 42.6819 50 42.6819H45C44.3094 42.6819 43.75 43.2413 43.75 43.9319V55.1819H36.25V38.9319C36.25 38.2413 35.6906 37.6819 35 37.6819H30C29.3094 37.6819 28.75 38.2413 28.75 38.9319V55.1819H21.25V48.9319C21.25 48.2413 20.6906 47.6819 20 47.6819H15C14.3094 47.6819 13.75 48.2413 13.75 48.9319V55.1819H11.25C10.5594 55.1819 10 55.7413 10 56.4319C10 57.1225 10.5594 57.6819 11.25 57.6819H68.75C69.4406 57.6819 70 57.1225 70 56.4319C70 55.7413 69.4406 55.1819 68.75 55.1819ZM61.25 35.1819H63.75V55.1819H61.25V35.1819ZM46.25 45.1819H48.75V55.1819H46.25V45.1819ZM31.25 40.1819H33.75V55.1819H31.25V40.1819ZM16.25 50.1819H18.75V55.1819H16.25V50.1819Z" fill="white"/>
<path d="M17.5 45.1819C20.2562 45.1819 22.5 42.9381 22.5 40.1819C22.5 39.6053 22.4016 39.0522 22.2203 38.5366L29.1672 33.9053C30.0531 34.6975 31.2203 35.1819 32.5 35.1819C34.2563 35.1819 35.8031 34.2709 36.6953 32.8975L42.5141 34.8366C42.5062 34.9506 42.5016 35.0647 42.5016 35.1819C42.5016 37.9397 44.7453 40.1819 47.5016 40.1819C50.2578 40.1819 52.5016 37.9397 52.5016 35.1819C52.5016 34.6053 52.4031 34.0522 52.2219 33.5366L59.1687 28.9053C60.0547 29.6975 61.2219 30.1819 62.5016 30.1819C65.2578 30.1819 67.5016 27.9397 67.5016 25.1819C67.5016 22.4241 65.2578 20.1819 62.5016 20.1819C59.7453 20.1819 57.5016 22.4241 57.5016 25.1819C57.5016 25.7584 57.6 26.3116 57.7812 26.8272L50.8344 31.4584C49.9484 30.6663 48.7812 30.1819 47.5016 30.1819C45.7453 30.1819 44.1984 31.0928 43.3063 32.4663L37.4875 30.5272C37.4953 30.4131 37.5 30.2991 37.5 30.1819C37.5 27.4241 35.2563 25.1819 32.5 25.1819C29.7437 25.1819 27.5 27.4241 27.5 30.1819C27.5 30.7584 27.5984 31.3116 27.7797 31.8272L20.8328 36.4584C19.9469 35.6663 18.7797 35.1819 17.5 35.1819C14.7438 35.1819 12.5 37.4241 12.5 40.1819C12.5 42.9397 14.7438 45.1819 17.5 45.1819ZM62.5 22.6819C63.8781 22.6819 65 23.8038 65 25.1819C65 26.56 63.8781 27.6819 62.5 27.6819C61.1219 27.6819 60 26.56 60 25.1819C60 23.8038 61.1219 22.6819 62.5 22.6819ZM47.5 32.6819C48.8781 32.6819 50 33.8038 50 35.1819C50 36.56 48.8781 37.6819 47.5 37.6819C46.1219 37.6819 45 36.56 45 35.1819C45 33.8038 46.1219 32.6819 47.5 32.6819ZM32.5 27.6819C33.8781 27.6819 35 28.8038 35 30.1819C35 31.56 33.8781 32.6819 32.5 32.6819C31.1219 32.6819 30 31.56 30 30.1819C30 28.8038 31.1219 27.6819 32.5 27.6819ZM17.5 37.6819C18.8781 37.6819 20 38.8038 20 40.1819C20 41.56 18.8781 42.6819 17.5 42.6819C16.1219 42.6819 15 41.56 15 40.1819C15 38.8038 16.1219 37.6819 17.5 37.6819Z" fill="white"/>
<path d="M18.75 60.1819H16.25C15.5594 60.1819 15 60.7413 15 61.4319C15 62.1225 15.5594 62.6819 16.25 62.6819H18.75C19.4406 62.6819 20 62.1225 20 61.4319C20 60.7413 19.4406 60.1819 18.75 60.1819Z" fill="white"/>
<path d="M33.75 60.1819H31.25C30.5594 60.1819 30 60.7413 30 61.4319C30 62.1225 30.5594 62.6819 31.25 62.6819H33.75C34.4406 62.6819 35 62.1225 35 61.4319C35 60.7413 34.4406 60.1819 33.75 60.1819Z" fill="white"/>
<path d="M48.75 60.1819H46.25C45.5594 60.1819 45 60.7413 45 61.4319C45 62.1225 45.5594 62.6819 46.25 62.6819H48.75C49.4406 62.6819 50 62.1225 50 61.4319C50 60.7413 49.4406 60.1819 48.75 60.1819Z" fill="white"/>
<path d="M63.75 60.1819H61.25C60.5594 60.1819 60 60.7413 60 61.4319C60 62.1225 60.5594 62.6819 61.25 62.6819H63.75C64.4406 62.6819 65 62.1225 65 61.4319C65 60.7413 64.4406 60.1819 63.75 60.1819Z" fill="white"/>
</svg>
