<svg width="80" height="81" viewBox="0 0 80 81" fill="none" xmlns="http://www.w3.org/2000/svg">
<g clip-path="url(#clip0_423_322)">
<path d="M21.25 26.4319C20.5594 26.4319 20 26.9913 20 27.6819C20 28.3725 20.5594 28.9319 21.25 28.9319H26.25C26.9406 28.9319 27.5 28.3725 27.5 27.6819V23.9319C27.5 23.2413 26.9406 22.6819 26.25 22.6819H22.5V21.4319H26.25C26.9406 21.4319 27.5 20.8725 27.5 20.1819C27.5 19.4913 26.9406 18.9319 26.25 18.9319H21.25C20.5594 18.9319 20 19.4913 20 20.1819V23.9319C20 24.6225 20.5594 25.1819 21.25 25.1819H25V26.4319H21.25Z" fill="white"/>
<path d="M31.25 28.9319H36.25C36.9406 28.9319 37.5 28.3725 37.5 27.6819C37.5 26.9913 36.9406 26.4319 36.25 26.4319H32.5V25.1819H35C35.6906 25.1819 36.25 24.6225 36.25 23.9319C36.25 23.2413 35.6906 22.6819 35 22.6819H32.5V21.4319H36.25C36.9406 21.4319 37.5 20.8725 37.5 20.1819C37.5 19.4913 36.9406 18.9319 36.25 18.9319H31.25C30.5594 18.9319 30 19.4913 30 20.1819V27.6819C30 28.3725 30.5594 28.9319 31.25 28.9319Z" fill="white"/>
<path d="M41.25 28.9319H46.25C46.9406 28.9319 47.5 28.3725 47.5 27.6819V20.1819C47.5 19.4913 46.9406 18.9319 46.25 18.9319H41.25C40.5594 18.9319 40 19.4913 40 20.1819V27.6819C40 28.3725 40.5594 28.9319 41.25 28.9319ZM42.5 21.4319H45V26.4319H42.5V21.4319Z" fill="white"/>
<path d="M21.25 36.4319H48.75C49.4406 36.4319 50 35.8725 50 35.1819C50 34.4913 49.4406 33.9319 48.75 33.9319H21.25C20.5594 33.9319 20 34.4913 20 35.1819C20 35.8725 20.5594 36.4319 21.25 36.4319Z" fill="white"/>
<path d="M18.75 41.4319H48.75C49.4406 41.4319 50 40.8725 50 40.1819C50 39.4913 49.4406 38.9319 48.75 38.9319H18.75C18.0594 38.9319 17.5 39.4913 17.5 40.1819C17.5 40.8725 18.0594 41.4319 18.75 41.4319Z" fill="white"/>
<path d="M18.75 46.4319H48.75C49.4406 46.4319 50 45.8725 50 45.1819C50 44.4913 49.4406 43.9319 48.75 43.9319H18.75C18.0594 43.9319 17.5 44.4913 17.5 45.1819C17.5 45.8725 18.0594 46.4319 18.75 46.4319Z" fill="white"/>
<path d="M18.75 51.4319H48.75C49.4406 51.4319 50 50.8725 50 50.1819C50 49.4913 49.4406 48.9319 48.75 48.9319H18.75C18.0594 48.9319 17.5 49.4913 17.5 50.1819C17.5 50.8725 18.0594 51.4319 18.75 51.4319Z" fill="white"/>
<path d="M18.75 56.4319H48.75C49.4406 56.4319 50 55.8725 50 55.1819C50 54.4913 49.4406 53.9319 48.75 53.9319H18.75C18.0594 53.9319 17.5 54.4913 17.5 55.1819C17.5 55.8725 18.0594 56.4319 18.75 56.4319Z" fill="white"/>
<path d="M45 60.1819C45 59.4913 44.4406 58.9319 43.75 58.9319H18.75C18.0594 58.9319 17.5 59.4913 17.5 60.1819C17.5 60.8725 18.0594 61.4319 18.75 61.4319H43.75C44.4406 61.4319 45 60.8725 45 60.1819Z" fill="white"/>
<path d="M72.1344 48.0475L68.3844 44.2975C67.8969 43.81 67.1047 43.81 66.6172 44.2975L60.0016 50.9131V10.1819C60.0016 9.85063 59.8703 9.53189 59.6359 9.29751L50.8844 0.54751C50.65 0.313135 50.3312 0.181885 50 0.181885H8.75C8.05937 0.181885 7.5 0.74126 7.5 1.43188V78.9319C7.5 79.6225 8.05937 80.1819 8.75 80.1819H58.75C59.4406 80.1819 60 79.6225 60 78.9319V61.9491L72.1344 49.8147C72.6219 49.3272 72.6219 48.535 72.1344 48.0475ZM51.25 4.44907L55.7328 8.93188H51.25V4.44907ZM57.5 77.6819H10V2.68188H48.75V10.1819C48.75 10.8725 49.3094 11.4319 50 11.4319H57.5V53.4147L46.6156 64.2991C46.4953 64.4194 46.4016 64.5616 46.3391 64.7194L43.8391 70.9694C43.6531 71.4334 43.7625 71.9647 44.1156 72.3178C44.3547 72.5569 44.675 72.6834 45 72.6834C45.1562 72.6834 45.3141 72.6538 45.4641 72.5944L51.7141 70.0944C51.8719 70.0319 52.0141 69.9381 52.1344 69.8178L57.5 64.4522V77.685V77.6819ZM49.025 68.4756L47.2437 69.1881L47.9563 67.4069L49.025 68.4756ZM51.25 67.1647L49.2672 65.1819L63.75 50.6991L65.7328 52.6819L51.25 67.1647ZM67.5 50.9147L65.5172 48.9319L67.5 46.9491L69.4828 48.9319L67.5 50.9147Z" fill="white"/>
</g>
<defs>
<clipPath id="clip0_423_322">
<rect width="80" height="80" fill="white" transform="translate(0 0.181885)"/>
</clipPath>
</defs>
</svg>
