<svg width="80" height="81" viewBox="0 0 80 81" fill="none" xmlns="http://www.w3.org/2000/svg">
<g clip-path="url(#clip0_423_446)">
<path d="M71.25 17.6819H56.2C56.2328 17.2647 56.25 16.8475 56.25 16.4319C56.25 15.5147 56.1719 14.5913 56.0172 13.6866C55.9281 13.1616 55.5156 12.7506 54.9906 12.6631L51.7328 12.1209C51.6156 11.8022 51.4875 11.4897 51.3453 11.1834L53.2641 8.49751C53.5734 8.0647 53.575 7.48188 53.2672 7.04751C52.1984 5.5397 50.8922 4.23345 49.3844 3.1647C48.95 2.85688 48.3688 2.85845 47.9344 3.16782L45.2484 5.08657C44.9422 4.94595 44.6297 4.81626 44.3109 4.69907L43.7687 1.44126C43.6812 0.91626 43.2703 0.50376 42.7453 0.414697C40.9359 0.106885 39.0641 0.106885 37.2547 0.414697C36.7297 0.50376 36.3188 0.91626 36.2313 1.44126L35.6891 4.69907C35.3703 4.81626 35.0578 4.94438 34.7516 5.08657L32.0656 3.16782C31.6328 2.85845 31.05 2.85688 30.6172 3.1647C29.1094 4.23345 27.8016 5.5397 26.7344 7.04751C26.4266 7.48188 26.4281 8.06313 26.7375 8.49751L28.6562 11.1834C28.5156 11.4897 28.3859 11.8022 28.2687 12.1209L25.0109 12.6631C24.4859 12.7506 24.0734 13.1616 23.9844 13.6866C23.8297 14.5913 23.7516 15.5147 23.7516 16.4319C23.7516 16.8475 23.7703 17.2647 23.8016 17.6819H8.75C6.68281 17.6819 5 19.3647 5 21.4319V63.9319C5 65.9991 6.68281 67.6819 8.75 67.6819H35V77.6819H28.75C28.0594 77.6819 27.5 78.2413 27.5 78.9319C27.5 79.6225 28.0594 80.1819 28.75 80.1819H51.25C51.9406 80.1819 52.5 79.6225 52.5 78.9319C52.5 78.2413 51.9406 77.6819 51.25 77.6819H45V67.6819H71.25C73.3172 67.6819 75 65.9991 75 63.9319V21.4319C75 19.3647 73.3172 17.6819 71.25 17.6819ZM26.25 16.4319C26.25 15.9475 26.275 15.4616 26.3266 14.9788L29.4203 14.4631C29.8922 14.385 30.2781 14.0444 30.4125 13.585C30.6109 12.9131 30.8781 12.2678 31.2047 11.6663C31.4328 11.2459 31.4016 10.7319 31.1234 10.3428L29.3016 7.79282C29.9125 7.03657 30.6016 6.34751 31.3578 5.73657L33.9094 7.55845C34.2984 7.83657 34.8125 7.86782 35.2328 7.6397C35.8344 7.31313 36.4797 7.04595 37.1516 6.84595C37.6094 6.71001 37.95 6.32407 38.0297 5.85376L38.5453 2.76001C39.5125 2.65845 40.4859 2.65845 41.4531 2.76001L41.9688 5.85376C42.0469 6.32563 42.3875 6.71157 42.8469 6.84595C43.5187 7.04438 44.1641 7.31157 44.7656 7.6397C45.1859 7.86782 45.7 7.83657 46.0891 7.55845L48.6391 5.73657C49.3953 6.34751 50.0844 7.03657 50.6953 7.79282L48.8734 10.3428C48.5953 10.7319 48.5641 11.2459 48.7922 11.6663C49.1187 12.2678 49.3859 12.9131 49.5859 13.585C49.7219 14.0428 50.1078 14.3834 50.5781 14.4631L53.6719 14.9788C53.7234 15.4616 53.7484 15.9491 53.7484 16.4319C53.7484 16.8475 53.7281 17.2647 53.6891 17.6819H47.3922C47.4609 17.2709 47.4984 16.8538 47.4984 16.4319C47.4984 12.2959 44.1344 8.93188 39.9984 8.93188C35.8625 8.93188 32.4984 12.2959 32.4984 16.4319C32.4984 16.8538 32.5344 17.2709 32.6047 17.6819H26.3078C26.2703 17.2647 26.2484 16.8475 26.2484 16.4319H26.25ZM35.1578 17.6819C35.0531 17.2756 35 16.8584 35 16.4319C35 13.6756 37.2422 11.4319 40 11.4319C42.7578 11.4319 45 13.6756 45 16.4319C45 16.8584 44.9469 17.2756 44.8422 17.6819H35.1594H35.1578ZM42.5 77.6819H37.5V67.6819H42.5V77.6819ZM72.5 63.9319C72.5 64.6209 71.9391 65.1819 71.25 65.1819H8.75C8.06094 65.1819 7.5 64.6209 7.5 63.9319V21.4319C7.5 20.7428 8.06094 20.1819 8.75 20.1819H71.25C71.9391 20.1819 72.5 20.7428 72.5 21.4319V63.9319Z" fill="white"/>
<path d="M68.75 22.6819H11.25C10.5594 22.6819 10 23.2413 10 23.9319V61.4319C10 62.1225 10.5594 62.6819 11.25 62.6819H68.75C69.4406 62.6819 70 62.1225 70 61.4319V23.9319C70 23.2413 69.4406 22.6819 68.75 22.6819ZM52.8031 25.1819C52.7469 25.2647 52.6922 25.3475 52.6406 25.4319L51.4625 27.3944C50.8938 28.3428 49.8531 28.9303 48.7484 28.9303H12.5V25.1803H52.8031V25.1819ZM67.5 60.1819H12.5V31.4319H48.75C50.7281 31.4319 52.5906 30.3772 53.6078 28.6819L54.7859 26.7194C55.3547 25.7709 56.3953 25.1834 57.5 25.1834H67.5V60.1834V60.1819Z" fill="white"/>
<path d="M57.5 30.1819C57.5 30.8725 58.0594 31.4319 58.75 31.4319C59.4406 31.4319 60 30.8725 60 30.1819V28.9319C60 28.2413 59.4406 27.6819 58.75 27.6819C58.0594 27.6819 57.5 28.2413 57.5 28.9319V30.1819Z" fill="white"/>
<path d="M63.75 31.4319C64.4406 31.4319 65 30.8725 65 30.1819V28.9319C65 28.2413 64.4406 27.6819 63.75 27.6819C63.0594 27.6819 62.5 28.2413 62.5 28.9319V30.1819C62.5 30.8725 63.0594 31.4319 63.75 31.4319Z" fill="white"/>
<path d="M26.25 41.4319H53.75C54.4406 41.4319 55 40.8725 55 40.1819C55 39.4913 54.4406 38.9319 53.75 38.9319H26.25C25.5594 38.9319 25 39.4913 25 40.1819C25 40.8725 25.5594 41.4319 26.25 41.4319Z" fill="white"/>
<path d="M58.75 43.9319H21.25C20.5594 43.9319 20 44.4913 20 45.1819C20 45.8725 20.5594 46.4319 21.25 46.4319H58.75C59.4406 46.4319 60 45.8725 60 45.1819C60 44.4913 59.4406 43.9319 58.75 43.9319Z" fill="white"/>
<path d="M53.75 48.9319H26.25C25.5594 48.9319 25 49.4913 25 50.1819C25 50.8725 25.5594 51.4319 26.25 51.4319H53.75C54.4406 51.4319 55 50.8725 55 50.1819C55 49.4913 54.4406 48.9319 53.75 48.9319Z" fill="white"/>
</g>
<defs>
<clipPath id="clip0_423_446">
<rect width="80" height="80" fill="white" transform="translate(0 0.181885)"/>
</clipPath>
</defs>
</svg>
