<svg width="80" height="81" viewBox="0 0 80 81" fill="none" xmlns="http://www.w3.org/2000/svg">
<path d="M34.0531 36.4694L30 35.4553V26.4319C30 25.7413 29.4406 25.1819 28.75 25.1819C28.0594 25.1819 27.5 25.7413 27.5 26.4319V28.0303L13.5469 32.6819H5C2.24219 32.6819 0 34.9241 0 37.6819V42.6819C0 45.4397 2.24219 47.6819 5 47.6819H7.5V53.9319C7.5 55.9991 9.18281 57.6819 11.25 57.6819C13.3172 57.6819 15 55.9991 15 53.9319V48.1663L27.5 52.3334V53.9319C27.5 54.6225 28.0594 55.1819 28.75 55.1819C29.4406 55.1819 30 54.6225 30 53.9319V44.9084L34.0531 43.8944C34.6094 43.7553 35 43.2553 35 42.6819V37.6819C35 37.1084 34.6094 36.6084 34.0531 36.4694ZM12.5 53.9319C12.5 54.6209 11.9391 55.1819 11.25 55.1819C10.5609 55.1819 10 54.6209 10 53.9319V47.6819H12.5V53.9319ZM12.5 45.1819H5C3.62188 45.1819 2.5 44.06 2.5 42.6819V37.6819C2.5 36.3038 3.62188 35.1819 5 35.1819H12.5V45.1819ZM27.5 49.6975L15 45.5303V34.8319L27.5 30.6647V49.6959V49.6975ZM32.5 41.7053L30 42.3303V38.0319L32.5 38.6569V41.7053Z" fill="white"/>
<path d="M40.0004 28.9318C40.3207 28.9318 40.6395 28.8099 40.8848 28.5662L53.2613 16.1896C53.9098 15.5412 54.7738 15.1834 55.6926 15.1834H65.1598C65.716 17.338 67.6754 18.9333 70.002 18.9333C72.7582 18.9333 75.002 16.6912 75.002 13.9334C75.002 11.1755 72.7582 8.93335 70.002 8.93335C67.677 8.93335 65.716 10.5287 65.1598 12.6834H55.6926C54.1066 12.6834 52.616 13.3005 51.4941 14.4224L39.1176 26.799C38.6301 27.2865 38.6301 28.0787 39.1176 28.5662C39.3613 28.8099 39.6816 28.9318 40.002 28.9318H40.0004ZM70.0004 11.4318C71.3785 11.4318 72.5004 12.5537 72.5004 13.9318C72.5004 15.3099 71.3785 16.4318 70.0004 16.4318C68.6223 16.4318 67.5004 15.3099 67.5004 13.9318C67.5004 12.5537 68.6223 11.4318 70.0004 11.4318Z" fill="white"/>
<path d="M70 61.4318C67.675 61.4318 65.7141 63.0271 65.1578 65.1818H55.6906C54.7719 65.1818 53.9094 64.824 53.2594 64.1755L40.8828 51.799C40.3953 51.3115 39.6031 51.3115 39.1156 51.799C38.6281 52.2865 38.6281 53.0787 39.1156 53.5662L51.4922 65.9427C52.6141 67.0646 54.1047 67.6818 55.6906 67.6818H65.1578C65.7141 69.8365 67.6734 71.4318 70 71.4318C72.7562 71.4318 75 69.1896 75 66.4318C75 63.674 72.7562 61.4318 70 61.4318ZM70 68.9318C68.6219 68.9318 67.5 67.8099 67.5 66.4318C67.5 65.0537 68.6219 63.9318 70 63.9318C71.3781 63.9318 72.5 65.0537 72.5 66.4318C72.5 67.8099 71.3781 68.9318 70 68.9318Z" fill="white"/>
<path d="M75 35.1819C72.675 35.1819 70.7141 36.7772 70.1578 38.9319H45C44.3094 38.9319 43.75 39.4913 43.75 40.1819C43.75 40.8725 44.3094 41.4319 45 41.4319H70.1578C70.7141 43.5866 72.6734 45.1819 75 45.1819C77.7562 45.1819 80 42.9397 80 40.1819C80 37.4241 77.7562 35.1819 75 35.1819ZM75 42.6819C73.6219 42.6819 72.5 41.56 72.5 40.1819C72.5 38.8038 73.6219 37.6819 75 37.6819C76.3781 37.6819 77.5 38.8038 77.5 40.1819C77.5 41.56 76.3781 42.6819 75 42.6819Z" fill="white"/>
</svg>
