<svg width="80" height="81" viewBox="0 0 80 81" fill="none" xmlns="http://www.w3.org/2000/svg">
<g clip-path="url(#clip0_423_348)">
<path d="M40 10.1819C23.4578 10.1819 10 23.6397 10 40.1819C10 56.7241 23.4578 70.1819 40 70.1819C56.5422 70.1819 70 56.7241 70 40.1819C70 23.6397 56.5422 10.1819 40 10.1819ZM53.7375 38.9319C53.6563 34.4756 53.1438 30.1897 52.2438 26.3303C55.0406 25.0788 57.6484 23.3928 59.9797 21.3069C64.3719 25.9522 67.1641 32.1241 67.4703 38.9319H53.7375ZM51.6016 56.4881C53.9672 57.5897 56.1813 59.035 58.1781 60.7975C54.8469 63.7381 50.8016 65.8866 46.3375 66.9428C47.6891 65.4475 48.9203 63.4569 49.9844 61.0085C50.5938 59.6085 51.1328 58.0944 51.6016 56.4881ZM47.6922 60.0131C45.5734 64.8866 42.7688 67.6819 40 67.6819C37.2313 67.6819 34.4266 64.8866 32.3078 60.0131C31.7078 58.6335 31.1797 57.1319 30.725 55.535C33.6656 54.4835 36.7938 53.9335 40 53.9335C43.2063 53.9335 46.3344 54.4835 49.275 55.535C48.8203 57.1335 48.2922 58.6335 47.6922 60.0131ZM30.0141 61.01C31.0781 63.4585 32.3094 65.4491 33.6609 66.9444C29.1969 65.8881 25.1516 63.7397 21.8203 60.7991C23.8172 59.0366 26.0313 57.5913 28.3969 56.4897C28.8641 58.096 29.4047 59.61 30.0141 61.01ZM40 51.4319C36.5844 51.4319 33.2484 52.0038 30.1063 53.0991C29.3016 49.5225 28.8406 45.56 28.7625 41.4319H51.2375C51.1594 45.56 50.6984 49.5225 49.8938 53.0991C46.7516 52.0038 43.4156 51.4319 40 51.4319ZM12.5297 38.9319C12.8359 32.1241 15.6281 25.9522 20.0203 21.3069C22.3516 23.3928 24.9609 25.0788 27.7563 26.3303C26.8563 30.1897 26.3438 34.4756 26.2625 38.9319H12.5297ZM49.9859 19.3538C48.9219 16.9053 47.6906 14.9147 46.3391 13.4194C50.8031 14.4756 54.8484 16.6241 58.1797 19.5647C56.1828 21.3272 53.9688 22.7725 51.6031 23.8741C51.1359 22.2678 50.5953 20.7538 49.9859 19.3538ZM47.6922 20.3506C48.2922 21.7303 48.8203 23.2319 49.275 24.8288C46.3344 25.8803 43.2063 26.4303 40 26.4303C36.7938 26.4303 33.6656 25.8803 30.725 24.8288C31.1797 23.2303 31.7078 21.7303 32.3078 20.3506C34.4266 15.4772 37.2313 12.6819 40 12.6819C42.7688 12.6819 45.5734 15.4772 47.6922 20.3506ZM30.0141 19.3538C29.4047 20.7538 28.8656 22.2678 28.3969 23.8741C26.0313 22.7725 23.8172 21.3272 21.8203 19.5647C25.1516 16.6241 29.1969 14.4756 33.6609 13.4194C32.3094 14.9147 31.0781 16.9053 30.0141 19.3538ZM28.7625 38.9319C28.8406 34.8038 29.3016 30.8413 30.1063 27.2647C33.2484 28.36 36.5844 28.9319 40 28.9319C43.4156 28.9319 46.7516 28.36 49.8938 27.2647C50.6984 30.8413 51.1594 34.8038 51.2375 38.9319H28.7625ZM12.5297 41.4319H26.2625C26.3438 45.8881 26.8563 50.1741 27.7563 54.0335C24.9594 55.285 22.3516 56.971 20.0203 59.0569C15.6281 54.4116 12.8359 48.2397 12.5297 41.4319ZM59.9797 59.0569C57.6484 56.971 55.0391 55.285 52.2438 54.0335C53.1438 50.1741 53.6563 45.8881 53.7375 41.4319H67.4703C67.1641 48.2397 64.3719 54.4116 59.9797 59.0569Z" fill="white"/>
<path d="M68.75 0.181885H11.25C5.04688 0.181885 0 5.22876 0 11.4319V68.9319C0 75.135 5.04688 80.1819 11.25 80.1819H68.75C74.9531 80.1819 80 75.135 80 68.9319V11.4319C80 5.22876 74.9531 0.181885 68.75 0.181885ZM77.5 68.9319C77.5 73.7569 73.575 77.6819 68.75 77.6819H11.25C6.425 77.6819 2.5 73.7569 2.5 68.9319V11.4319C2.5 6.60688 6.425 2.68188 11.25 2.68188H68.75C73.575 2.68188 77.5 6.60688 77.5 11.4319V68.9319Z" fill="white"/>
<path d="M10.75 76.6819C12.8172 76.6819 14.5 74.9991 14.5 72.9319V71.6819H22V74.1819C22 74.8725 22.5594 75.4319 23.25 75.4319C23.9406 75.4319 24.5 74.8725 24.5 74.1819V71.6819H27V74.285C27 74.9756 27.5594 75.535 28.25 75.535C28.9406 75.535 29.5 74.9756 29.5 74.285V71.6819H30.75C31.4406 71.6819 32 71.1225 32 70.4319C32 69.7413 31.4406 69.1819 30.75 69.1819H14.5V67.9319C14.5 65.8647 12.8172 64.1819 10.75 64.1819C8.68281 64.1819 7 65.8647 7 67.9319V72.9319C7 74.9991 8.68281 76.6819 10.75 76.6819ZM9.5 67.9319C9.5 67.2428 10.0609 66.6819 10.75 66.6819C11.4391 66.6819 12 67.2428 12 67.9319V72.9319C12 73.6209 11.4391 74.1819 10.75 74.1819C10.0609 74.1819 9.5 73.6209 9.5 72.9319V67.9319Z" fill="white"/>
</g>
<defs>
<clipPath id="clip0_423_348">
<rect width="80" height="80" fill="white" transform="translate(0 0.181885)"/>
</clipPath>
</defs>
</svg>
