<svg width="145" height="253" viewBox="0 0 145 253" fill="none" xmlns="http://www.w3.org/2000/svg">
<path d="M-57.075 251.69L143.26 49.9307L95.3149 1.6448L-105.02 203.404L-57.075 251.69Z" fill="url(#paint0_radial_312_1836)"/>
<path d="M93.6875 252.224L144.076 201.478C143.121 200.583 142.166 199.704 141.244 198.759C100.585 157.81 100.206 93.2705 140.866 52.3218C141.294 51.8907 142.825 50.3324 143.269 49.9013L95.3172 1.64154C92.4365 4.16146 89.6051 6.76427 86.8725 9.51629C22.0972 74.7524 22.0972 180.523 86.8725 245.775C89.0948 248.013 91.3829 250.152 93.6875 252.241V252.224Z" fill="url(#paint1_radial_312_1836)"/>
<path d="M-55.6665 0L-106.055 50.7465C-105.1 51.6418 -104.145 52.5204 -103.223 53.4654C-62.5638 94.4141 -61.1646 153.069 -103.223 201.776C-103.618 202.24 -104.59 202.986 -105.018 203.417L-57.2633 251.511C-54.3826 248.991 -51.6006 245.493 -48.8515 242.725C15.9238 177.489 15.9238 71.7182 -48.8515 6.46558C-51.0738 4.2275 -53.3619 2.08888 -55.6665 0Z" fill="url(#paint2_radial_312_1836)"/>
<defs>
<radialGradient id="paint0_radial_312_1836" cx="0" cy="0" r="1" gradientTransform="matrix(-116.19 117.016 -116.19 -117.016 -2.8562 237.342)" gradientUnits="userSpaceOnUse">
<stop offset="0.2"/>
<stop offset="0.27" stop-color="#000F23"/>
<stop offset="0.38" stop-color="#002A5C"/>
<stop offset="0.49" stop-color="#00408E"/>
<stop offset="0.6" stop-color="#0053B6"/>
<stop offset="0.71" stop-color="#0061D6"/>
<stop offset="0.81" stop-color="#006BEC"/>
<stop offset="0.91" stop-color="#0071FA"/>
<stop offset="1" stop-color="#0074FF"/>
</radialGradient>
<radialGradient id="paint1_radial_312_1836" cx="0" cy="0" r="1" gradientUnits="userSpaceOnUse" gradientTransform="translate(-50.843 16.5455) scale(310.428 312.636)">
<stop offset="0.2" stop-color="#0089FF"/>
<stop offset="0.22" stop-color="#2379FE"/>
<stop offset="0.26" stop-color="#5C5EFC"/>
<stop offset="0.29" stop-color="#8E48FB"/>
<stop offset="0.32" stop-color="#B635FA"/>
<stop offset="0.35" stop-color="#D627F9"/>
<stop offset="0.38" stop-color="#EC1DF9"/>
<stop offset="0.41" stop-color="#FA17F9"/>
<stop offset="0.44" stop-color="#FF15F9"/>
<stop offset="0.46" stop-color="#F319F9"/>
<stop offset="0.61" stop-color="#9E39FB"/>
<stop offset="0.75" stop-color="#5A52FC"/>
<stop offset="0.86" stop-color="#2964FE"/>
<stop offset="0.95" stop-color="#0B6FFE"/>
<stop offset="1" stop-color="#0074FF"/>
</radialGradient>
<radialGradient id="paint2_radial_312_1836" cx="0" cy="0" r="1" gradientUnits="userSpaceOnUse" gradientTransform="translate(163.203 162.618) scale(314.066 316.3)">
<stop offset="0.2" stop-color="#0089FF"/>
<stop offset="0.22" stop-color="#2379FE"/>
<stop offset="0.26" stop-color="#5C5EFC"/>
<stop offset="0.29" stop-color="#8E48FB"/>
<stop offset="0.32" stop-color="#B635FA"/>
<stop offset="0.35" stop-color="#D627F9"/>
<stop offset="0.38" stop-color="#EC1DF9"/>
<stop offset="0.41" stop-color="#FA17F9"/>
<stop offset="0.44" stop-color="#FF15F9"/>
<stop offset="0.46" stop-color="#F319F9"/>
<stop offset="0.61" stop-color="#9E39FB"/>
<stop offset="0.75" stop-color="#5A52FC"/>
<stop offset="0.86" stop-color="#2964FE"/>
<stop offset="0.95" stop-color="#0B6FFE"/>
<stop offset="1" stop-color="#0074FF"/>
</radialGradient>
</defs>
</svg>
